<?xml version="1.0" encoding="UTF-8" standalone="no"?>
<!-- Created with Inkscape (http://www.inkscape.org/) -->

<svg
   version="1.1"
   id="svg19194"
   viewBox="0 0 2093.048 1475.9553"
   sodipodi:docname="logo.svg"
   inkscape:version="1.2.2 (b0a8486541, 2022-12-01)"
   xmlns:inkscape="http://www.inkscape.org/namespaces/inkscape"
   xmlns:sodipodi="http://sodipodi.sourceforge.net/DTD/sodipodi-0.dtd"
   xmlns:xlink="http://www.w3.org/1999/xlink"
   xmlns="http://www.w3.org/2000/svg"
   xmlns:svg="http://www.w3.org/2000/svg">
  <defs
     id="defs19198">
    <clipPath
       clipPathUnits="userSpaceOnUse"
       id="clipPath2843">
      <g
         id="g2851">
        <g
           id="g2849">
          <g
             id="g2847">
            <path
               d="m 1581.75,3157.92 c 0,0 3.23,-19.7 16.18,-46.66 25.23,-52.52 87.37,-132.61 234.5,-148.29 16.58,-1.77 34.24,-2.72 53.05,-2.72 58.85,-5.98 122.12,-2.86 188.6,6.81 34.94,5.08 70.77,11.96 107.32,20.27 339.32,77.2 739.95,277.78 1060.52,302.06 9.43,0.72 18.79,1.27 28.08,1.68 11.31,0.48 22.52,0.74 33.62,0.74 93.75,8.03 155.86,1.76 195.27,-2.74 35.18,-4 52.29,-6.59 57.62,3.7 1.31,2.5 1.91,5.84 1.91,10.27 0,5.66 0,16.09 -0.02,32.12 -0.02,42.02 -0.13,149.88 -0.25,270.48 -0.04,37.77 -0.08,76.78 -0.12,115.41 -0.06,79.79 -0.11,157.95 -0.11,220.12 0,33.94 -0.1,67.87 0.17,101.8 0.22,26.39 0.33,52.77 0.33,79.17 -5.97,2.46 -12.2,4.74 -18.71,6.82 -5.31,1.72 -10.82,3.33 -16.48,4.8 -194.89,50.84 -586.49,-38.92 -933.48,-124.29 -37.34,-9.18 -74.16,-18.32 -110.17,-27.22 -57.58,-14.24 -113.08,-27.89 -165.25,-40.21 -91.74,-21.66 -173.23,-39.21 -237.74,-48.61 -33.12,-4.84 -61.77,-7.52 -85.04,-7.52 -224.9,-19.22 -367.99,117.23 -401.96,82.39 -12.61,-12.93 -7.84,-40.16 -7.84,-56.52 0,-34.11 0,-91.71 0,-161.71 0,-33.89 0,-70.68 0,-109.11 0,-137.68 0,-275.36 0,-413.04 0,-53.1 0,-34.74 0,-34.02 0,1.07 0,-35.98 0,-35.98 z"
               id="path2845" />
          </g>
        </g>
      </g>
    </clipPath>
    <clipPath
       clipPathUnits="userSpaceOnUse"
       id="clipPath2693">
      <g
         id="g2701">
        <g
           id="g2699">
          <g
             id="g2697">
            <path
               d="m 1581.75,3157.92 c 0,0 3.23,-19.7 16.18,-46.66 25.23,-52.52 87.37,-132.61 234.5,-148.29 16.58,-1.77 34.24,-2.72 53.05,-2.72 58.85,-5.98 122.12,-2.86 188.6,6.81 34.94,5.08 70.77,11.96 107.32,20.27 339.32,77.2 739.95,277.78 1060.52,302.06 9.43,0.72 18.79,1.27 28.08,1.68 11.31,0.48 22.52,0.74 33.62,0.74 93.75,8.03 155.86,1.76 195.27,-2.74 35.18,-4 52.29,-6.59 57.62,3.7 1.31,2.5 1.91,5.84 1.91,10.27 0,5.66 0,16.09 -0.02,32.12 -0.02,42.02 -0.13,149.88 -0.25,270.48 -0.04,37.77 -0.08,76.78 -0.12,115.41 -0.06,79.79 -0.11,157.95 -0.11,220.12 0,33.94 -0.1,67.87 0.17,101.8 0.22,26.39 0.33,52.77 0.33,79.17 -5.97,2.46 -12.2,4.74 -18.71,6.82 -5.31,1.72 -10.82,3.33 -16.48,4.8 -194.89,50.84 -586.49,-38.92 -933.48,-124.29 -37.34,-9.18 -74.16,-18.32 -110.17,-27.22 -57.58,-14.24 -113.08,-27.89 -165.25,-40.21 -91.74,-21.66 -173.23,-39.21 -237.74,-48.61 -33.12,-4.84 -61.77,-7.52 -85.04,-7.52 -224.9,-19.22 -367.99,117.23 -401.96,82.39 -12.61,-12.93 -7.84,-40.16 -7.84,-56.52 0,-34.11 0,-91.71 0,-161.71 0,-33.89 0,-70.68 0,-109.11 0,-137.68 0,-275.36 0,-413.04 0,-53.1 0,-34.74 0,-34.02 0,1.07 0,-35.98 0,-35.98 z"
               id="path2695" />
          </g>
        </g>
      </g>
    </clipPath>
    <linearGradient
       inkscape:collect="always"
       xlink:href="#linearGradient14145"
       id="linearGradient14147"
       x1="3464.3804"
       y1="-3486.6484"
       x2="3464.3574"
       y2="-3406.051"
       gradientUnits="userSpaceOnUse"
       gradientTransform="translate(535.34608,477.35647)" />
    <linearGradient
       inkscape:collect="always"
       id="linearGradient14145">
      <stop
         style="stop-color:#ffffff;stop-opacity:1;"
         offset="0"
         id="stop14141" />
      <stop
         style="stop-color:#ffffff;stop-opacity:0;"
         offset="1"
         id="stop14143" />
    </linearGradient>
    <mask
       maskUnits="userSpaceOnUse"
       id="mask14991">
      <path
         style="mix-blend-mode:normal;fill:none;fill-opacity:0.21423;stroke:#eef1a8;stroke-width:124.14;stroke-linecap:round;stroke-linejoin:round;stroke-dasharray:none;stroke-opacity:0.196456;paint-order:stroke fill markers;filter:url(#filter14889)"
         d="m 1545.687,3174.874 35.0525,775.6128 c 220.198,-121.3615 427.8727,-124.9677 686.3836,-53.4351 340.4395,94.2031 691.6299,189.5942 1029.2324,217.9782 l 235.4461,-10.1097 -3.1844,-620.8431"
         id="path14993"
         sodipodi:nodetypes="ccsccc"
         clip-path="url(#clipPath14980)"
         transform="matrix(0.99174258,0.12824448,0.12824448,-0.99174258,0,0)" />
    </mask>
    <clipPath
       clipPathUnits="userSpaceOnUse"
       id="clipPath14980">
      <path
         style="fill:#e47f00;fill-opacity:1;fill-rule:nonzero;stroke:none;stroke-width:0.999997"
         d="m 3384.9676,4148.8458 c 70.43,0 130.31,-7.89 175.19,-26.41 0,-265.16 0,-765.05 0,-819.39 0,-13.16 -5.94,-17.19 -20.65,-17.19 -11.65,0 -28.8,2.53 -52.85,5.06 -24.06,2.52 -55.01,5.04 -94.27,5.04 -25.4,0 -54.29,-1.05 -87.03,-3.85 -404.55,0 -961.69,-334.6 -1355.66,-334.6 -21.34,0 -42.14,0.97 -62.48,3.04 -271.36,0 -303.73,197.67 -303.73,197.67 0,0 0,689.64 0,781.24 0,25.31 8.07,34.86 23.69,34.86 23.98,0 65.76,-22.5 123.46,-44.99 57.69,-22.49 131.31,-44.99 218.97,-44.99 14.2,0 28.76,0.59 43.68,1.87 230.09,0 985.48,262.64 1391.68,262.64"
         id="path14982" />
    </clipPath>
    <filter
       inkscape:collect="always"
       style="color-interpolation-filters:sRGB"
       id="filter14889"
       x="-0.066996099"
       y="-0.14153177"
       width="1.1339922"
       height="1.2830635">
      <feGaussianBlur
         inkscape:collect="always"
         stdDeviation="29.579971"
         id="feGaussianBlur14891" />
    </filter>
    <linearGradient
       inkscape:collect="always"
       xlink:href="#linearGradient12613"
       id="linearGradient12615"
       x1="1816.5245"
       y1="2921.7241"
       x2="1773.3247"
       y2="3320.5364"
       gradientUnits="userSpaceOnUse" />
    <linearGradient
       inkscape:collect="always"
       id="linearGradient12613">
      <stop
         style="stop-color:#e8eebd;stop-opacity:0.75092161;"
         offset="0"
         id="stop12609" />
      <stop
         style="stop-color:#ffffff;stop-opacity:0.18823529;"
         offset="0.22033837"
         id="stop12617" />
      <stop
         style="stop-color:#ffffff;stop-opacity:0.09411765;"
         offset="0.73822188"
         id="stop13345" />
      <stop
         style="stop-color:#ffffff;stop-opacity:0;"
         offset="1"
         id="stop12611" />
    </linearGradient>
    <filter
       inkscape:collect="always"
       style="color-interpolation-filters:sRGB"
       id="filter22185"
       x="-0.22445528"
       y="-0.048223305"
       width="1.4489106"
       height="1.0964466">
      <feGaussianBlur
         inkscape:collect="always"
         stdDeviation="150.46636"
         id="feGaussianBlur22187" />
    </filter>
  </defs>
  <sodipodi:namedview
     id="namedview19196"
     pagecolor="#505050"
     bordercolor="#ffffff"
     borderopacity="1"
     inkscape:showpageshadow="0"
     inkscape:pageopacity="0"
     inkscape:pagecheckerboard="1"
     inkscape:deskcolor="#505050"
     showgrid="false"
     inkscape:zoom="0.85589636"
     inkscape:cx="230.75224"
     inkscape:cy="397.82854"
     inkscape:window-width="3440"
     inkscape:window-height="1335"
     inkscape:window-x="0"
     inkscape:window-y="34"
     inkscape:window-maximized="1"
     inkscape:current-layer="g19204">
    <inkscape:page
       x="0"
       y="0"
       id="page19200"
       width="2093.0481"
       height="1475.9553" />
  </sodipodi:namedview>
  <g
     id="g19202"
     inkscape:groupmode="layer"
     inkscape:label="Page 1"
     transform="matrix(1.3333333,0,0,-1.3333333,-3294.621,3124.3699)">
    <g
       id="g19204"
       transform="scale(0.1)">
      <path
         d="m 27056.667,19492.603 c 7.562,-92.201 207.897,6.305 0,0 v 0"
         style="fill:#fcb022;fill-opacity:1;fill-rule:nonzero;stroke:none"
         id="path19266" />
      <path
         d="m 27055.8,19492.844 c 6.148,-94.299 212.164,7.09 0,0 v 0"
         style="fill:#ffe340;fill-opacity:1;fill-rule:nonzero;stroke:none"
         id="path19270" />
      <path
         d="m 27055.8,19492.844 c 6.148,-94.299 212.164,7.09 0,0 v 0"
         style="fill:#ffe340;fill-opacity:1;fill-rule:nonzero;stroke:none"
         id="path19274" />
      <path
         d="m 28673.267,20984.682 c -457.41,22.116 -836.303,-94.387 -1148.606,-287.545 -1059.42,-655.308 -1353.702,-2192.789 -1353.702,-2192.789 0,0 285.438,-834.964 509.749,-1135.279 224.31,-300.315 125.636,49.018 940.453,312.035 162.218,-0.986 322.749,-48.399 463.821,-38.115 171.069,12.47 264.144,14.122 468.096,132.093 476.489,275.613 1143.528,308.042 1375.909,559.661 1180.581,1278.323 -737.91,2442.498 -1255.72,2649.939"
         style="fill:#e8a272;fill-opacity:1;fill-rule:nonzero;stroke:none"
         id="path19278"
         sodipodi:nodetypes="cccscsssc" />
      <path
         d="m 29000.112,20554.844 c -90.264,222.123 -203.299,380.31 -326.845,429.838 -457.41,22.116 -836.303,-94.387 -1148.606,-287.545 -343.898,-212.703 -606.67,-518.457 -805.387,-834.248 91.342,-294.355 -77.861,-585.765 -29.915,-752.934 109.2,-74.6 331.605,-92.261 674.087,-41.711 -57.818,-207.807 -54.32,-446.686 -216.088,-625.571 207.806,-57.817 415.484,-91.102 614.61,21.338 -5.793,-222.281 -36.227,-381.656 -151.896,-520.949 825.56,-176.651 1067.799,2102.729 622.029,2131.986 288.756,130.163 489.023,386.981 768.011,479.796"
         style="fill:#fbbc91;fill-opacity:1;fill-rule:nonzero;stroke:none"
         id="path19280" />
      <path
         d="m 29051.306,18454.15 c -161.22,-476.524 -538.886,-992.992 -1422.907,-747.034 l -7.804,2.171 -7.757,-2.512 c -389.325,-125.642 -572.4,-270.677 -681.827,-357.316 -66.066,-52.409 -96.512,-75.286 -123.969,-67.646 -24.278,6.754 -55.633,37.691 -104.729,103.354 -208.491,279.202 -475.492,1040.529 -503.427,1121.064 23.38,112.76 339.08,1548.891 1339.945,2167.969 335.487,207.466 715.062,302.916 1128.467,283.806 411.276,-173.385 692.004,-1593.5 384.008,-2503.856 z m -368.061,2555.574 -4.202,1.688 -4.507,0.216 c -426.273,20.615 -818,-77.475 -1164.045,-291.553 -1057.3,-654.03 -1362.985,-2195.189 -1365.941,-2210.663 l -1.325,-7.001 2.272,-6.756 c 11.736,-34.301 289.364,-842.492 513.701,-1142.711 58.956,-79.097 95.149,-112.417 133.396,-123.059 55.011,-15.305 99.069,19.561 171.897,77.251 105.835,83.798 282.49,223.665 657.264,345.881 1840.726,-577.927 2071.212,2839.623 1061.49,3356.707"
         style="fill:#803325;fill-opacity:1;fill-rule:nonzero;stroke:none"
         id="path19282"
         sodipodi:nodetypes="sscccsccccsccscccccsccc" />
      <path
         id="path19687"
         style="fill:#f46100;fill-opacity:1;fill-rule:nonzero;stroke:#000000;stroke-width:415.747;stroke-dasharray:none;stroke-opacity:1;paint-order:stroke fill markers"
         d="m 39382.193,23224.591 -8143.227,-257.857 c -309.145,-9.789 -564.962,-247.317 -594.932,-555.22 -37.581,-385.821 -44.574,-753.78 -55.649,-1124.033 -689.259,233.797 -1441.562,54.464 -1903.902,-422.153 -534.635,-550.797 -590.62,-1518.953 -319.57,-2344.087 435.816,-1326.97 2674.07,-2619.989 3323.569,-3165.806 l -5.654,27.949 c 479.994,-1006.09 1080.026,-1813.879 1746.27,-2364.419 376.026,-310.853 858.859,-462.351 1346.513,-446.909 l 1743.838,55.21 c 515.142,16.312 1005.592,224.745 1373.862,585.381 1680.915,1646.023 2757.134,5099.525 2119.205,9485.728 -45.059,309.829 -317.39,536.125 -630.323,526.216 z m -9622.119,-3013.975 c 290.687,-15.279 646.982,-230.272 839.194,-129.229 51.271,-1095.405 212.266,-2104.103 466.875,-3010.063 -568.68,415.724 -1637.414,961.529 -1817.783,1724.707 -121.77,515.303 -69.529,1010.817 228.984,1318.418 76.493,78.86 174.803,101.84 282.73,96.167 z" />
      <path
         style="fill:#663c1f;fill-opacity:1;fill-rule:nonzero;stroke:none"
         d="m 27577.544,17238.188 c -86.033,136.973 -396.834,236.109 -536.525,280.58 -16.672,5.365 -31.348,10.071 -43.23,13.999 l -74.1,24.665 73.527,26.252 c 108.359,38.774 389.2,381.124 452.915,520.963 -90.889,-6.579 -234.108,13.651 -373.531,33.343 -134.446,18.93 -273.457,38.611 -337.305,28.869 l -21.365,-3.294 -7.887,20.152 c -30.11,77.195 283.603,558.208 370.323,682.616 -106.598,24.261 -498.5,-30.807 -654.915,-52.786 l -128.08,-17.509 15.546,42.072 c 108.207,292.292 217.516,738.522 130.156,825.21 -181.559,-195.343 -933.349,-496.338 -1733.415,-822.522 l 733.698,-2005.958 c 825.259,308.679 1611.786,425.339 2174.465,343.668 l 40.824,-5.857 -10.962,39.691 c -49.868,180.782 -395.171,295.434 -575.036,352.95"
         id="path21069" />
      <path
         style="fill:#663c1f;fill-opacity:1;fill-rule:nonzero;stroke:none"
         d="m 27072.647,17565.292 c 159.836,114.86 427.474,461.61 443.272,568.383 l 6.012,40.262 -39.476,-10.192 c -71.479,-18.518 -245.181,5.937 -398.286,27.567 -124.147,17.518 -242.465,34.349 -318.863,31.731 39.041,120.546 325.718,580.122 375.924,635.594 l 18.021,20.002 -19.975,18.117 c -57.516,51.813 -307.891,28.262 -721.27,-29.757 l -39.303,-5.465 c 62.896,178.68 258.569,780.867 70.037,862.073 l -19.096,8.22 -12.853,-16.353"
         id="path19338" />
      <path
         d="m 29311.421,21744.638 c -245.388,-211.567 -1615.723,-953.195 -1615.723,-953.195 l 536.403,-716.395 c 2251.965,1220.537 1324.72,1713.312 1079.32,1669.59"
         style="fill:#e8a272;fill-opacity:1;fill-rule:nonzero;stroke:none"
         id="path19296" />
      <path
         d="m 28883.454,21462.944 c -488.904,-293.284 -1187.756,-671.501 -1187.756,-671.501 l 123.235,-371.113 192.751,-481.683 c 164.367,105.495 1277.822,1056.437 871.77,1524.297"
         style="fill:#fbbc91;fill-opacity:1;fill-rule:nonzero;stroke:none"
         id="path19298"
         sodipodi:nodetypes="ccccc" />
      <path
         d="m 29291.502,21766.684 -7.313,-1.287 -5.585,-4.778 c -240.473,-207.329 -1597.294,-942.545 -1610.979,-949.948 l 25.631,-47.405 c 55.699,30.071 1355.07,734.146 1614.609,951.429 93.67,11.722 285.217,-54.546 338.388,-206.665 55.593,-158.709 -7.184,-489.175 -872.698,-1047.822 -163.842,-105.753 -714.364,-491.245 -714.364,-491.245 1382.179,749.128 1725.599,1306.523 1637.996,1556.866 -67.703,193.529 -300.06,259.734 -405.685,240.855"
         style="fill:#803325;fill-opacity:1;fill-rule:nonzero;stroke:none"
         id="path19300"
         sodipodi:nodetypes="cccccccsccc" />
      <path
         d="m 29917.761,18675.19 c -340.129,-108.5 -555.981,-384.025 -482.149,-615.589 73.763,-231.441 409.294,-331.23 749.519,-222.756 340.13,108.501 555.981,384.025 482.149,615.589 -73.763,231.441 -409.389,331.257 -749.519,222.756"
         style="fill:#e8a272;fill-opacity:1;fill-rule:nonzero;stroke:none"
         id="path19302" />
      <path
         d="m 29917.761,18675.19 c -340.129,-108.5 -555.981,-384.025 -482.149,-615.589 13.664,-43.037 36.5,-81.465 66.746,-114.895 225.377,50.85 434.957,163.184 600.029,305.443 145.447,112.012 128.945,294.825 51.743,467.643 -76.323,-3.469 -156.188,-17.059 -236.369,-42.602"
         style="fill:#fbbc91;fill-opacity:1;fill-rule:nonzero;stroke:none"
         id="path19304" />
      <path
         d="m 30560.264,18115.178 c -87.849,-112.053 -224,-201.844 -383.333,-252.593 -155.153,-49.524 -314.559,-56.138 -449.05,-18.719 -138.056,38.41 -232.812,117.919 -266.625,223.962 -69.171,216.981 139.309,477.949 464.733,581.719 155.125,49.428 314.558,56.138 448.953,18.746 138.153,-38.438 232.882,-118.042 266.694,-224.086 32.942,-103.206 3.972,-220.016 -81.372,-329.029 z m -170.874,605.043 c -144.318,40.153 -314.698,33.27 -479.829,-19.291 -353.685,-112.825 -577.889,-404.191 -499.689,-649.53 39.528,-123.93 147.366,-216.108 303.534,-259.558 144.415,-40.18 314.795,-33.298 479.953,19.36 169.489,54.047 314.881,150.193 409.335,270.685 96.74,123.488 128.774,258.025 90.326,378.748 -39.527,123.93 -147.366,216.109 -303.63,259.586"
         style="fill:#803325;fill-opacity:1;fill-rule:nonzero;stroke:none"
         id="path19306" />
      <path
         d="m 29946.413,19584.381 c -386.599,-110.623 -636.135,-423.277 -557.455,-698.228 78.749,-275.074 455.804,-408.421 842.403,-297.799 386.599,110.622 636.108,423.18 557.455,698.228 -78.749,275.074 -455.927,408.352 -842.403,297.799"
         style="fill:#e8a272;fill-opacity:1;fill-rule:nonzero;stroke:none"
         id="path19308" />
      <path
         d="m 30267.96,19621.241 c -101.992,5.748 -211.27,-5.367 -321.547,-36.86 -386.599,-110.623 -636.135,-423.277 -557.455,-698.228 10.925,-38.331 28.216,-73.555 49.994,-106.083 308.561,11.825 606.533,84.827 828.232,263.853 192.669,148.178 143.429,408.814 0.776,577.318"
         style="fill:#fbbc91;fill-opacity:1;fill-rule:nonzero;stroke:none"
         id="path19310" />
      <path
         d="m 30663.54,18892.646 c -101.919,-127.549 -258.034,-226.421 -439.625,-278.451 -162.838,-46.555 -332.087,-50.12 -476.405,-9.967 -172.546,48.007 -293.718,153.445 -332.614,289.344 -35.561,124.383 -0.277,261.649 99.338,386.517 101.919,127.549 257.937,226.448 439.598,278.354 162.961,46.625 332.113,50.216 476.528,10.037 172.45,-47.98 293.622,-153.418 332.518,-289.317 35.561,-124.384 0.277,-261.649 -99.338,-386.517 z m -218.732,727.761 c -153.856,42.807 -333.49,39.225 -505.814,-10.089 -192.298,-55.07 -358.094,-160.383 -466.889,-296.606 -110.878,-138.861 -149.601,-293.335 -109.112,-435.074 44.188,-154.187 179.026,-273.184 370.07,-326.337 153.759,-42.78 333.393,-39.199 505.717,10.115 192.298,55.071 358.094,160.384 466.766,296.538 111.001,138.93 149.724,293.403 109.208,435.047 -44.161,154.283 -178.999,273.28 -369.946,326.406"
         style="fill:#803325;fill-opacity:1;fill-rule:nonzero;stroke:none"
         id="path19312" />
      <path
         d="m 29980.418,20222.933 c -466.383,-84.376 -809.457,-346.718 -766.203,-585.966 43.323,-239.372 456.438,-365.106 922.917,-280.757 466.357,84.28 809.43,346.621 766.107,585.993 -43.227,239.345 -456.369,364.983 -922.821,280.73"
         style="fill:#e8a272;fill-opacity:1;fill-rule:nonzero;stroke:none"
         id="path19314" />
      <path
         d="m 30310.808,20248.302 c -103.802,3.346 -215.423,-4.626 -330.39,-25.369 -466.383,-84.376 -809.457,-346.718 -766.203,-585.966 14.628,-80.985 72.336,-148.525 159.395,-199.734 350.699,26.361 687.313,136.774 992.093,362.957 130.606,144.478 48.402,311.629 -54.895,448.112"
         style="fill:#fbbc91;fill-opacity:1;fill-rule:nonzero;stroke:none"
         id="path19316" />
      <path
         d="m 30132.374,19382.757 c -212.236,-38.313 -421.088,-33.869 -588.239,12.636 -173.22,48.195 -283.789,138.019 -303.373,246.332 -40.541,224.377 293.465,473.153 744.51,554.634 212.14,38.34 420.992,33.896 588.143,-12.61 173.22,-48.194 283.693,-137.992 303.373,-246.331 40.471,-224.255 -293.465,-473.153 -744.414,-554.661 z m 455.488,852.92 c -174.858,48.65 -392.285,53.612 -612.203,13.803 -488.444,-88.307 -834.588,-359.447 -788.018,-617.368 23.851,-131.402 145.196,-233.981 342.02,-288.743 174.762,-48.623 392.215,-53.488 612.23,-13.706 488.444,88.307 834.491,359.474 787.922,617.395 -23.755,131.374 -145.223,233.884 -341.951,288.619"
         style="fill:#803325;fill-opacity:1;fill-rule:nonzero;stroke:none"
         id="path19318" />
      <path
         d="m 29827.85,21008.681 c -443.931,-93.218 -757.374,-389.337 -700.185,-661.319 57.066,-272.052 463.268,-417.038 907.103,-323.793 443.835,93.245 757.375,389.337 700.212,661.416 -57.189,271.982 -463.295,416.94 -907.13,323.696"
         style="fill:#e8a272;fill-opacity:1;fill-rule:nonzero;stroke:none"
         id="path19320" />
      <path
         d="m 30046.018,21035.483 c -70.82,-2.717 -143.853,-11.149 -218.168,-26.802 -443.931,-93.218 -757.374,-389.337 -700.185,-661.319 25.814,-123.229 123.683,-219.9 263.818,-280.686 246.478,76.325 478.887,212.513 651.208,383.064 134.275,175.947 164.026,445.538 3.327,585.743"
         style="fill:#fbbc91;fill-opacity:1;fill-rule:nonzero;stroke:none"
         id="path19322" />
      <path
         d="m 30554.195,20306.804 c -128.69,-121.553 -315.051,-212.737 -525.036,-256.763 -185.665,-39.063 -373.994,-36.592 -530.451,6.939 -190.659,53.046 -316.353,160.884 -344.694,295.922 -53.994,256.976 250.766,539.423 679.376,629.43 185.665,39.063 374.091,36.565 530.451,-6.939 190.755,-53.072 316.422,-161.007 344.694,-295.922 25.723,-122.061 -29.156,-254.394 -154.34,-372.667 z m -175.906,720.517 c -164.55,45.782 -362.043,48.519 -556.048,7.832 -457.62,-96.156 -781.138,-407.222 -721.021,-693.304 32.63,-155.435 172.343,-278.176 383.04,-336.797 164.55,-45.782 362.016,-48.615 556.048,-7.832 219.38,46.083 415.089,142.139 550.945,270.418 139.364,131.558 199.737,281.772 170.173,422.86 -32.754,155.365 -172.247,278.148 -383.137,336.823"
         style="fill:#803325;fill-opacity:1;fill-rule:nonzero;stroke:none"
         id="path19324" />
      <path
         style="fill:#784c29;fill-opacity:1;fill-rule:nonzero;stroke:none"
         d="m 26726.998,17784.17 c -183.177,73.325 -433.562,74.956 -604.134,75.443 68.87,204.41 169.566,334.15 272.274,470.176 -170.541,0.583 -396.617,-20.222 -549.948,31.439 160.412,290.381 125.543,509.167 48.112,816.792 -247.319,-106.134 -746.682,-319.964 -1055.945,-431.054 l 470.96,-1521.571 c 114.472,20.268 219.482,51.92 329.972,61.353 289.908,16.077 783.613,77.348 986.43,34.129 -129.127,114.418 -234.612,107.327 -353.523,261.146 -33.837,68.383 506.88,184.938 455.802,202.147"
         id="path19336" />
      <g
         id="g16109"
         transform="matrix(3.8991203,0,0,3.8991203,25439.718,5499.1282)">
        <path
           d="m 1947.96,2942.2 c -21.84,0 -43.16,1.04 -63.38,3.06 -280,0.46 -317.28,208.14 -317.63,210.25 -0.12,0.79 -0.19,1.6 -0.19,2.41 v 781.24 c 0,41.21 21.03,49.87 38.69,49.87 19.55,0 44.84,-10.81 79.89,-25.76 14.59,-6.22 31.16,-13.3 49.01,-20.26 48.42,-18.86 123.25,-43.97 213.59,-43.97 14.06,0 28.3,0.6 42.35,1.82 0.42,0.03 0.85,0.03 1.27,0.03 96.98,0 290.3,47.87 514.16,103.27 301.81,74.71 643.89,159.39 877.5,159.39 76.82,0 136.01,-9.02 180.93,-27.55 5.61,-2.31 9.26,-7.79 9.26,-13.87 v -819.38 c 0,-14.68 -6.19,-32.19 -35.64,-32.19 -9.08,0 -20.56,1.33 -35.07,2.99 -5.89,0.67 -12.32,1.42 -19.37,2.17 -20.31,2.12 -52,4.96 -92.64,4.96 -27.42,0 -56.28,-1.27 -85.78,-3.81 -0.44,-0.04 -0.85,-0.04 -1.29,-0.04 -201.09,0 -445.39,-85.49 -681.64,-168.15 -233.92,-81.82 -475.81,-166.45 -674.02,-166.48 v 0"
           style="fill:#005b2a;fill-opacity:1;fill-rule:nonzero;stroke:none"
           id="path156" />
        <path
           d="m 3383.23,4178.55 c -235.43,0 -578.46,-84.91 -881.12,-159.82 -222.9,-55.18 -415.41,-102.82 -510.56,-102.82 -0.85,0 -1.7,-0.04 -2.55,-0.11 -13.65,-1.17 -27.49,-1.76 -41.13,-1.76 -87.79,0 -160.79,24.51 -208.08,42.94 -17.62,6.87 -34.07,13.89 -48.58,20.08 -36.67,15.65 -63.16,26.96 -85.77,26.96 -12.59,0 -53.69,-4.68 -53.69,-64.86 v -781.24 c 0,-1.62 0.13,-3.24 0.39,-4.85 0.39,-2.36 9.98,-58.27 56.86,-113.41 42.28,-49.75 124.3,-109.01 274.96,-109.41 20.43,-2.02 41.95,-3.04 64,-3.04 200.78,0 443.9,85.06 679.02,167.32 235.06,82.24 478.12,167.28 676.64,167.28 0.85,0 1.71,0.04 2.56,0.1 29.08,2.5 57.51,3.75 84.47,3.75 39.51,0 69.45,-2.6 91.13,-4.89 6.98,-0.73 13.38,-1.46 19.22,-2.14 14.99,-1.72 26.84,-3.07 36.77,-3.07 47,0 50.65,36.11 50.65,47.19 v 819.39 c 0,12.15 -7.32,23.09 -18.55,27.73 -46.76,19.29 -107.81,28.68 -186.64,28.68 z m 0,-30 c 70.43,0 130.31,-7.89 175.19,-26.41 0,-265.16 0,-765.05 0,-819.39 0,-13.16 -5.94,-17.19 -20.65,-17.19 -11.65,0 -28.8,2.53 -52.85,5.06 -24.06,2.52 -55.01,5.04 -94.27,5.04 -25.4,0 -54.29,-1.05 -87.03,-3.85 -404.55,0 -961.69,-334.6 -1355.66,-334.6 -21.34,0 -42.14,0.97 -62.48,3.04 -271.36,0 -303.73,197.67 -303.73,197.67 0,0 0,689.64 0,781.24 0,25.31 8.07,34.86 23.69,34.86 23.98,0 65.76,-22.5 123.46,-44.99 57.69,-22.49 131.31,-44.99 218.97,-44.99 14.2,0 28.76,0.59 43.68,1.87 230.09,0 985.48,262.64 1391.68,262.64"
           style="fill:#00441f;fill-opacity:1;fill-rule:nonzero;stroke:none"
           id="path158" />
        <path
           d="m 2873.824,3582.765 c 4.961,1.9 9.912,3.78 14.863,5.645 10.459,38.116 20.381,124.66 29.668,162.292 -5.214,-1.24 -10.429,-2.476 -15.644,-3.706 -9.004,-37.842 -18.653,-125.9 -28.887,-164.231 z"
           style="fill:#1d602f;fill-opacity:1;fill-rule:nonzero;stroke:none;stroke-width:10"
           id="path422"
           clip-path="url(#clipPath2843)" />
        <path
           d="m 1945.277,3677.518 c 94.308,6.303 192.717,24.058 256.341,29.692 4.155,19.005 7.735,37.223 10.645,54.43 -62.237,-6.587 -161.897,-24.839 -257.694,-31.924 -2.759,-16.773 -5.893,-34.244 -9.292,-52.198 z"
           style="fill:#174b26;fill-opacity:1;fill-rule:nonzero;stroke:none;stroke-width:10"
           id="path452"
           clip-path="url(#clipPath2693)" />
        <path
           d="m 2248.27,3408.98 42.52,139.66 37.74,-129.47 z m 937.52,261.11 -10.32,-105.33 53.7,12.39 v -64.02 l -59.91,-10.34 c 0,0 -95.45,-18.12 -84.67,109.47 16.59,206.54 272.64,171.42 272.64,171.42 l 7.58,120.43 c 0,0 -107.07,2.66 -141.84,-2.69 -40.25,-6.19 -194.68,-33.29 -262.83,-170.14 l 11.84,100.54 c 0,0 -127.46,6.42 -132.95,-41.67 -3.26,-35.76 -17.38,-245.97 -17.38,-245.97 0,0 -77.15,134.67 -100.4,172.49 -23.22,37.83 -40.42,57.64 -100.68,57.64 -60.26,0 -100.67,-50.54 -103.17,-78.4 -1.56,-17.39 -18.62,-168.88 -29.92,-294.66 -65.61,271.43 -63.78,252.29 -79.86,318.47 -26.69,8.53 -175.81,-13.26 -199.71,-69.7 -33.56,-67.87 -129.83,-293.85 -167.62,-382.98 l 45.5,419.74 c 0,0 47.68,7.8 109.1,17.84 128.01,20.97 95.55,167.05 95.55,167.05 0,0 -417.16,-82.79 -477.19,-92.62 -111.59,-22.96 -92.58,-163.8 -92.58,-163.8 l 223.49,41.96 c 0,0 -38.68,-31.86 -42.5,-69.93 0,-36.25 -62.43,-532.82 -62.43,-532.82 l 151.13,27.84 -0.17,-0.75 51.86,8.48 c 0,0 74.91,8.64 97.25,71.14 17.34,47.55 47.55,125.35 47.55,125.35 l 175.03,25.78 c 0,0 6.88,-38.84 10.82,-66.85 3.93,-19.15 26.22,-12.35 26.22,-12.35 l 118.68,20.88 -0.17,0.76 76.23,14.89 36.93,301.85 c 0,0 105.31,-185 121.37,-217.12 35.17,-47.81 91.37,-32.55 91.37,-32.55 l 76.26,10.44 12.84,163.77 0.66,5.54 c 33.81,-138.36 181.97,-126.57 232.31,-126.57 130.31,9.63 220.74,90.63 220.74,90.63 l 8.26,247.85 -208.61,-43.38"
           style="fill:#ffffff;fill-opacity:1;fill-rule:nonzero;stroke:none"
           id="path612" />
        <path
           d="m 2268.27,3388.98 42.52,139.66 37.74,-129.47 z m 937.52,261.11 -10.32,-105.33 53.7,12.39 v -64.02 l -59.91,-10.34 c 0,0 -95.45,-18.12 -84.67,109.47 16.59,206.54 272.64,171.42 272.64,171.42 l 7.58,120.43 c 0,0 -107.07,2.66 -141.84,-2.69 -40.25,-6.19 -194.68,-33.29 -262.83,-170.14 l 11.84,100.54 c 0,0 -127.46,6.42 -132.95,-41.67 -3.26,-35.76 -17.38,-245.97 -17.38,-245.97 0,0 -77.15,134.67 -100.4,172.49 -23.22,37.83 -40.42,57.64 -100.68,57.64 -60.25,0 -100.67,-50.54 -103.17,-78.4 -1.56,-17.39 -18.62,-168.88 -29.92,-294.66 -65.61,271.43 -63.78,252.29 -79.86,318.47 -26.69,8.53 -175.81,-13.26 -199.71,-69.7 -33.56,-67.87 -129.83,-293.85 -167.62,-382.98 l 45.5,419.74 c 0,0 47.68,7.8 109.1,17.84 128.01,20.97 95.55,167.05 95.55,167.05 0,0 -417.16,-82.79 -477.19,-92.62 -111.59,-22.96 -92.58,-163.8 -92.58,-163.8 l 223.49,41.96 c 0,0 -38.68,-31.86 -42.5,-69.93 0,-36.25 -62.43,-532.82 -62.43,-532.82 l 151.13,27.84 -0.17,-0.75 51.86,8.48 c 0,0 74.91,8.64 97.25,71.14 17.34,47.55 47.55,125.35 47.55,125.35 l 175.03,25.78 c 0,0 6.88,-38.84 10.82,-66.85 3.93,-19.15 26.22,-12.35 26.22,-12.35 l 118.68,20.88 -0.17,0.76 76.25,14.89 36.91,301.85 c 0,0 105.31,-185 121.37,-217.12 35.17,-47.81 91.37,-32.55 91.37,-32.55 l 76.26,10.44 12.84,163.77 0.66,5.54 c 33.81,-138.36 181.97,-126.57 232.31,-126.57 130.31,9.63 220.74,90.63 220.74,90.63 l 8.26,247.85 -208.61,-43.38"
           style="fill:#143d1f;fill-opacity:1;fill-rule:nonzero;stroke:none"
           id="path614" />
        <path
           d="m 2248.27,3408.98 42.52,139.66 37.74,-129.47 z m 937.52,261.11 -10.32,-105.33 53.7,12.39 v -64.02 l -59.91,-10.34 c 0,0 -95.45,-18.12 -84.67,109.47 16.59,206.54 272.64,171.42 272.64,171.42 l 7.58,120.43 c 0,0 -107.07,2.66 -141.84,-2.69 -40.25,-6.19 -194.68,-33.29 -262.83,-170.14 l 11.84,100.54 c 0,0 -127.46,6.42 -132.95,-41.67 -3.26,-35.76 -17.38,-245.97 -17.38,-245.97 0,0 -77.15,134.67 -100.4,172.49 -23.22,37.83 -40.42,57.64 -100.68,57.64 -60.26,0 -100.67,-50.54 -103.17,-78.4 -1.56,-17.39 -18.62,-168.88 -29.92,-294.66 -65.61,271.43 -63.78,252.29 -79.86,318.47 -26.69,8.53 -175.81,-13.26 -199.71,-69.7 -33.56,-67.87 -129.83,-293.85 -167.62,-382.98 l 45.5,419.74 c 0,0 47.68,7.8 109.1,17.84 128.01,20.97 95.55,167.05 95.55,167.05 0,0 -417.16,-82.79 -477.19,-92.62 -111.59,-22.96 -92.58,-163.8 -92.58,-163.8 l 223.49,41.96 c 0,0 -38.68,-31.86 -42.5,-69.93 0,-36.25 -62.43,-532.82 -62.43,-532.82 l 151.13,27.84 -0.17,-0.75 51.86,8.48 c 0,0 74.91,8.64 97.25,71.14 17.34,47.55 47.55,125.35 47.55,125.35 l 175.03,25.78 c 0,0 6.88,-38.84 10.82,-66.85 3.93,-19.15 26.22,-12.35 26.22,-12.35 l 118.68,20.88 -0.17,0.76 76.23,14.89 36.93,301.85 c 0,0 105.31,-185 121.37,-217.12 35.17,-47.81 91.37,-32.55 91.37,-32.55 l 76.26,10.44 12.84,163.77 0.66,5.54 c 33.81,-138.36 181.97,-126.57 232.31,-126.57 130.31,9.63 220.74,90.63 220.74,90.63 l 8.26,247.85 -208.61,-43.38"
           style="fill:#ffffff;fill-opacity:1;fill-rule:nonzero;stroke:none"
           id="path616" />
        <path
           d="m 2166.85,3298.03 c 0,0 -30.21,-78.89 -47.55,-127.1 -22.34,-63.38 -97.25,-72.14 -97.25,-72.14 l -51.86,-8.59 0.17,0.76 -129.59,-24.21 c -0.99,-7.93 -1.54,-12.29 -1.54,-12.29 l 2.94,0.54 138.19,25.81 -0.09,-0.37 10.09,1.86 -0.14,-0.58 41.83,6.93 c 0,0 74.91,8.76 97.25,72.14 17.34,48.21 47.55,127.09 47.55,127.09 l 166.99,24.93 c -1.17,6.91 -1.96,11.35 -1.96,11.35 z m -242.69,375.87 -204.68,-38.98 c 0.08,-4.73 0.27,-8.77 0.49,-11.94 l 189.47,36.07 c 8.06,9.24 14.72,14.85 14.72,14.85 z m 317.69,-249.96 35.33,117.68 -6.39,22.19 -42.52,-141.62 z m 331.81,-143.03 -76.23,-15.11 0.17,-0.76 -118.68,-21.19 c 0,0 -2.29,-0.67 -5.48,-0.99 2.01,-5.97 6.08,-8.82 10.42,-10.07 2.93,0.35 5.06,0.93 5.06,0.93 l 118.68,21.17 -0.17,0.77 76.23,15.1 36.17,299.73 c -5.74,10.26 -9.24,16.48 -9.24,16.48 z m -104.1,156.48 c -55.67,232.61 -56.54,226.18 -70.5,283.75 -2.28,0.2 -4.8,0.32 -7.6,0.34 12.42,-50.08 16.13,-55.94 76.02,-307.11 0.67,7.58 1.37,15.28 2.08,23.02 z m -393.77,256.35 c 0,0 47.68,7.91 109.1,18.1 106.64,17.7 101.92,123.41 97.37,158.21 -2.44,-0.49 -5.38,-1.07 -8.79,-1.74 3.22,-42.45 -2.18,-130.33 -98.58,-146.35 -61.42,-10.16 -109.1,-18.08 -109.1,-18.08 l -45.5,-425.6 c 4.27,10.2 9.31,22.23 14.89,35.54 z m 836.64,-183.28 -12.84,-166.07 -76.26,-10.58 c 0,0 -27.68,-7.56 -56.33,4.66 10.49,-8.61 21.68,-13.48 32.2,-16.11 19.22,-2.67 34.13,1.31 34.13,1.31 l 76.26,10.58 12,155.2 c -3.3,8.23 -6.19,17.03 -8.5,26.64 z m -110.34,55.56 c -21.36,37.73 -72.63,128 -90.84,158.03 -9,14.87 -17.2,26.85 -27.28,36.12 -0.31,0.19 -0.64,0.37 -0.94,0.55 6.25,-7.56 12.05,-16.33 18.22,-26.54 23.25,-38.34 100.4,-174.89 100.4,-174.89 0,0 0.17,2.48 0.44,6.73 z m 571.59,143.14 -7.54,-229.53 c 0,0 -90.43,-82.13 -220.74,-91.9 -31.82,0 -102.66,-4.59 -159.07,27.35 16.8,-13.21 35.76,-22.17 55.16,-28.17 44.88,-11.83 90.23,-9.31 113.91,-9.31 130.31,9.76 220.74,91.88 220.74,91.88 l 7.95,241.84 z m -281.35,-177.93 c -12.87,16.39 -21.39,43.2 -17.74,86.95 16.59,209.42 272.64,173.82 272.64,173.82 l 6.97,112.33 c -3.02,0.06 -6.6,0.12 -10.62,0.17 l -6.35,-102.37 c 0,0 -256.05,35.62 -272.64,-173.82 -4.53,-54.35 9.71,-82.57 27.74,-97.08 z m 116.84,49 v 12.5 l -31.68,-7.43 -1.25,-12.76 z m -259.38,251.8 -9.65,-83.03 c 4.36,8.89 9.08,17.31 14.1,25.32 l 6.72,57.76 c -3.18,0.03 -6.97,0.02 -11.17,-0.05"
           style="fill:#9ebaa0;fill-opacity:0.642346;fill-rule:nonzero;stroke:none"
           id="path618" />
        <rect
           style="fill:url(#linearGradient14147);fill-opacity:1;stroke:none;stroke-width:13.8898;stroke-linejoin:round;stroke-opacity:0.789885;paint-order:stroke fill markers"
           id="rect14139"
           width="2187.9077"
           height="816.90143"
           x="1935.3661"
           y="-3745.7305"
           transform="matrix(0.99174258,0.12824448,0.12824448,-0.99174258,0,0)"
           mask="url(#mask14991)" />
        <path
           style="fill:url(#linearGradient12615);fill-opacity:1;stroke:none;stroke-width:13.8898;stroke-linejoin:round;stroke-opacity:0.789885;paint-order:stroke fill markers"
           d="m 1577.6879,3152.82 4.5341,167.375 1960.7008,348.9672 15.4813,-386.3908 c -227.8139,25.8459 -471.2309,9.9877 -764.0733,-94.5947 -233.9098,-83.5359 -440.4768,-171.3336 -730.8683,-224.9171 -354.728,-65.455 -469.9014,96.7217 -485.7746,189.5604 z"
           id="path12607"
           sodipodi:nodetypes="ccccssc" />
      </g>
      <path
         style="mix-blend-mode:normal;fill:#ffffff;fill-opacity:0.391838;fill-rule:nonzero;stroke:none;stroke-width:1;filter:url(#filter22185)"
         d="m 37776.015,14673.368 c 546.955,572.497 1880.972,2495.781 1401.084,7319.51 -8.588,86.371 -83.227,152.142 -169.994,149.394 l -616.951,-19.535 c -95.652,-3.029 -168.823,-86.287 -159.024,-181.524 90.734,-880.87 430.769,-4863.703 -555.269,-7201.382 -26.617,-63.074 52.794,-115.887 100.154,-66.463 z"
         id="path19689" />
    </g>
  </g>
</svg>
