<?xml version="1.0" encoding="UTF-8" standalone="no"?>
<!-- Created with Inkscape (http://www.inkscape.org/) -->

<svg
   version="1.1"
   id="svg2"
   viewBox="0 0 3670.2092 3111.1999"
   sodipodi:docname="splash.paths.svg"
   inkscape:version="1.2.2 (b0a8486541, 2022-12-01)"
   xmlns:inkscape="http://www.inkscape.org/namespaces/inkscape"
   xmlns:sodipodi="http://sodipodi.sourceforge.net/DTD/sodipodi-0.dtd"
   xmlns="http://www.w3.org/2000/svg"
   xmlns:svg="http://www.w3.org/2000/svg">
  <defs
     id="defs6" />
  <sodipodi:namedview
     id="namedview4"
     pagecolor="#505050"
     bordercolor="#ffffff"
     borderopacity="1"
     inkscape:showpageshadow="0"
     inkscape:pageopacity="0"
     inkscape:pagecheckerboard="1"
     inkscape:deskcolor="#505050"
     showgrid="false"
     inkscape:zoom="0.23121429"
     inkscape:cx="1952.734"
     inkscape:cy="2333.3333"
     inkscape:window-width="1978"
     inkscape:window-height="1251"
     inkscape:window-x="91"
     inkscape:window-y="93"
     inkscape:window-maximized="0"
     inkscape:current-layer="text1149">
    <inkscape:page
       x="0"
       y="0"
       id="page8"
       width="3670.2092"
       height="3111.2" />
  </sodipodi:namedview>
  <g
     id="g10"
     inkscape:groupmode="layer"
     inkscape:label="Page 1"
     transform="matrix(1.3333333,0,0,-1.3333333,-498.23065,3888.9332)">
    <g
       id="g12"
       transform="scale(0.1)">
      <path
         d="m 17500,25904.9 c 5542.7,0 10035.9,-4493.2 10035.9,-10035.9 0,-5542.7 -4493.2,-10036 -10035.9,-10036 -5542.7,0 -10035.95,4493.3 -10035.95,10036 0,5542.7 4493.25,10035.9 10035.95,10035.9"
         style="fill:#000d24;fill-opacity:1;fill-rule:evenodd;stroke:none"
         id="path16" />
      <path
         d="m 17500,25439.8 c 5285.8,0 9570.8,-4285 9570.8,-9570.8 0,-5285.8 -4285,-9570.8 -9570.8,-9570.8 -5285.8,0 -9570.83,4285 -9570.83,9570.8 0,5285.8 4285.03,9570.8 9570.83,9570.8"
         style="fill:#98713e;fill-opacity:1;fill-rule:evenodd;stroke:none"
         id="path18" />
      <path
         d="M 23941.1,22310.1 C 22292.7,23958.4 20015.4,24978 17500,24978 14984.6,24978 12707.3,23958.5 11058.9,22310.1 9410.57,20661.7 8390.98,18384.4 8390.98,15869 c 0,-2515.4 1019.56,-4792.7 2667.92,-6441.1 1648.4,-1648.4 3925.7,-2668 6441.1,-2668 2515.4,0 4792.7,1019.6 6441.1,2668 1648.4,1648.4 2668,3925.7 2668,6441.1 0,2515.4 -1019.6,4792.7 -2668,6441.1 z m -1623.3,-1623.3 c -1232.9,1232.9 -2936.3,1995.6 -4817.8,1995.6 -1881.5,0 -3584.8,-762.7 -4817.8,-1995.6 -1233,-1233 -1995.6,-2936.3 -1995.6,-4817.8 0,-1881.5 762.7,-3584.9 1995.6,-4817.9 1233,-1232.9 2936.3,-1995.5 4817.8,-1995.5 1881.5,0 3584.9,762.6 4817.8,1995.5 1233,1233 1995.6,2936.4 1995.6,4817.9 0,1881.4 -762.6,3584.8 -1995.6,4817.8 z M 17500,22855.1 c 1929.2,0 3675.7,-781.9 4940,-2046.2 1264.2,-1264.2 2046.2,-3010.8 2046.2,-4939.9 0,-1929.2 -782,-3675.7 -2046.2,-4939.9 -1264.3,-1264.3 -3010.8,-2046.3 -4940,-2046.3 -1929.1,0 -3675.7,782 -4939.9,2046.3 -1264.3,1264.2 -2046.2,3010.8 -2046.2,4939.9 0,1929.1 781.9,3675.7 2046.2,4939.9 1264.2,1264.2 3010.8,2046.2 4939.9,2046.2 z m 0,2295.7 c 2563.1,0 4883.5,-1038.9 6563.2,-2718.6 1679.7,-1679.7 2718.6,-4000.1 2718.6,-6563.2 0,-2563.1 -1038.9,-4883.5 -2718.6,-6563.2 C 22383.5,7626.1 20063.1,6587.2 17500,6587.2 c -2563,0 -4883.5,1038.9 -6563.2,2718.6 -1679.63,1679.7 -2718.57,4000.1 -2718.57,6563.2 0,2563.1 1038.94,4883.5 2718.57,6563.2 1679.7,1679.7 4000.1,2718.6 6563.2,2718.6 v 0"
         style="fill:#000d24;fill-opacity:1;fill-rule:nonzero;stroke:none"
         id="path20" />
      <path
         d="m 17500,22356.8 c 3583.1,0 6487.8,-2904.7 6487.8,-6487.8 0,-3583.1 -2904.7,-6487.8 -6487.8,-6487.8 -3583.1,0 -6487.8,2904.7 -6487.8,6487.8 0,3583.1 2904.7,6487.8 6487.8,6487.8"
         style="fill:#005cff;fill-opacity:1;fill-rule:evenodd;stroke:#0e0d1f;stroke-opacity:1;stroke-width:403.74750004;stroke-dasharray:none"
         id="path22" />
      <path
         d="m 23662,16255.6 c 7.8,-127.9 12.3,-256.7 12.3,-386.6 0,-1556.5 -576.1,-2978.3 -1526.5,-4064.3 -538.9,3.8 -938.9,65.2 -1452.8,-164.2 -408,-182.2 -1079,-384.2 -1808.1,-519 186.5,330.9 291.6,596.8 291.6,596.8 0,0 469.8,3372.9 819.1,5107.5 112.4,557.7 114.2,1023.8 65,1399.7 23.6,-122.2 45.1,-239.5 45.1,-239.5 0,0 621.8,-506.3 843.7,-628.1 221.8,-121.9 1663.8,-567.6 2356.1,-893.7 129.2,-60.8 247.4,-131.9 354.5,-208.6 z M 12852.3,11804.7 c 538.8,3.8 938.9,65.2 1452.7,-164.2 408,-182.2 1079,-384.2 1808.1,-519 -186.4,330.9 -291.6,596.8 -291.6,596.8 0,0 -469.8,3372.9 -819.1,5107.5 -112.3,557.7 -114.1,1023.8 -64.9,1399.7 -23.6,-122.2 -45.1,-239.5 -45.1,-239.5 0,0 -621.9,-506.3 -843.7,-628.1 -221.9,-121.9 -1663.9,-567.6 -2356.2,-893.7 -129.2,-60.8 -247.3,-131.9 -354.4,-208.6 -7.9,-127.9 -12.4,-256.7 -12.4,-386.6 0,-1556.5 576.1,-2978.3 1526.6,-4064.3 v 0"
         style="fill:#c52622;fill-opacity:1;fill-rule:nonzero;stroke:none"
         id="path24" />
      <path
         d="m 14919.3,11414.3 c 348.9,-109.1 761.1,-212.8 1193.8,-292.8 -186.4,330.9 -291.6,596.8 -291.6,596.8 0,0 -469.8,3372.9 -819.1,5107.5 -102.7,510 -113,943.3 -76.4,1301.2 l -9.3,-10.2 c -14.1,-74.8 -24.3,-130.8 -24.3,-130.8 0,0 -154.4,-125.7 -336.7,-266.8 v -0.1 h -0.1 c -183.6,-142.2 -395.6,-300.1 -506.9,-361.2 -124.8,-68.6 -636,-239.7 -1182.5,-434.3 l -0.3,-0.1 -993.9,-407.2 c 0,0 968.4,209.1 1670,445.2 -196,-119.7 -385.6,-224.9 -385.6,-224.9 0,0 322.8,33.1 656.3,132.3 -218.1,-136.2 -440.7,-254.2 -440.7,-254.2 0,0 769,41.8 1168,281.5 l 552.2,-3281.3 c 0,0 -318.7,970.3 -475,1768.2 0,0 24.6,-879.6 197.5,-1941.1 -86.9,174.3 -155.6,319.1 -167.8,364.9 -37.5,140.7 -281.2,1157.8 -281.2,1157.8 0,0 129.8,-1733.1 553.5,-3550.4 z m 5161.6,0 c -349,-109.1 -761.2,-212.8 -1193.9,-292.8 186.5,330.9 291.6,596.8 291.6,596.8 0,0 469.8,3372.9 819.1,5107.5 102.7,510 113,943.3 76.4,1301.2 l 9.3,-10.2 c 14.1,-74.8 24.3,-130.8 24.3,-130.8 0,0 154.4,-125.7 336.7,-266.8 l 0.1,-0.1 v 0 c 183.6,-142.2 395.6,-300.1 506.9,-361.2 124.9,-68.6 636,-239.7 1182.5,-434.3 l 0.4,-0.1 993.8,-407.2 c 0,0 -968.4,209.1 -1669.9,445.2 195.9,-119.7 385.6,-224.9 385.6,-224.9 0,0 -322.8,33.1 -656.3,132.3 218,-136.2 440.6,-254.2 440.6,-254.2 0,0 -768.9,41.8 -1168,281.5 l -552.2,-3281.3 c 0,0 318.7,970.3 475,1768.2 0,0 -24.6,-879.6 -197.4,-1941.1 86.9,174.3 155.5,319.1 167.7,364.9 37.5,140.7 281.3,1157.8 281.3,1157.8 0,0 -129.8,-1733.1 -553.6,-3550.4 z M 21218.6,10940 C 20184.3,10158.4 18896.4,9694.6 17500,9694.6 c -1396.3,0 -2684.3,463.7 -3718.6,1245.4 z m 1301.7,1334.2 c -116.7,-162.6 -241,-319.2 -372.5,-469.5 -219.6,1.6 -416.2,12.7 -606.8,9.7 -309.3,233.1 -599,305.5 -599,305.5 0,0 1578,953.1 2233.9,2460.9 -94.3,-454.9 -329.4,-1079.5 -564.1,-1492.6 280.2,276.4 624.5,642.6 624.5,642.6 0,0 -537.4,-989.7 -716,-1456.6 z m -9668,-469.5 c 219.6,1.6 416.2,12.7 606.8,9.7 309.3,233.1 599,305.5 599,305.5 0,0 -1578,953.1 -2233.9,2460.9 94.3,-454.9 329.4,-1079.5 564.1,-1492.6 -280.2,276.4 -624.6,642.6 -624.6,642.6 0,0 537.7,-989.9 716.2,-1456.7 116.6,-162.6 240.9,-319.2 372.4,-469.4 v 0"
         style="fill:#a3201d;fill-opacity:1;fill-rule:nonzero;stroke:none"
         id="path26" />
      <path
         d="m 16113.1,11121.5 c 456.3,-84.4 935.3,-142.4 1386.9,-152.7 451.6,10.3 930.6,68.3 1386.9,152.7 186.5,330.9 291.6,596.8 291.6,596.8 0,0 469.8,3372.9 819.1,5107.5 112.4,557.7 114.2,1023.8 65,1399.7 -24,124.5 -50.2,254.1 -58.1,269.9 l -1101.8,-522.2 181.4,-381.3 c 0,0 -648.3,-711.8 -1584.1,-1166.9 -935.8,455.1 -1584.2,1166.9 -1584.2,1166.9 l 181.4,381.3 -1101.8,522.2 c -7.8,-15.8 -34,-145.4 -58.1,-269.9 -49.1,-375.9 -47.3,-842 65,-1399.7 349.3,-1734.6 819.1,-5107.5 819.1,-5107.5 0,0 105.1,-265.9 291.6,-596.8 h 0.1"
         style="fill:#ffffff;fill-opacity:1;fill-rule:evenodd;stroke:none"
         id="path28" />
      <path
         d="m 15146.8,18423.7 -151.3,71.7 c -7.9,-15.8 -34.1,-145.4 -58.1,-269.9 -1.4,-11.1 -2.8,-22.3 -4.2,-33.6 -2.7,-70 -1.4,-147.5 7.4,-227.3 31,-281 423.4,-851.9 423.4,-851.9 -123.8,288.3 -158.2,550.8 -109,818.5 149.2,-437.7 397.9,-678.6 583.5,-825.7 546.1,-432.8 1307.5,-960.8 1503.7,-1047.5 l 113.7,388.7 c -912,455.7 -1540.1,1145.2 -1540.1,1145.2 l 181.4,381.3 -718.7,340.6 -231.8,109.9 z m 4706.5,0 151.3,71.7 c 7.9,-15.8 34.1,-145.4 58.1,-269.9 1.4,-11.1 2.8,-22.3 4.2,-33.6 2.7,-70 1.3,-147.5 -7.4,-227.3 -31,-281 -423.5,-851.9 -423.5,-851.9 123.9,288.3 158.3,550.8 109.1,818.5 -149.2,-437.7 -398,-678.6 -583.5,-825.7 -546.1,-432.8 -1307.5,-960.8 -1503.7,-1047.5 l -113.7,388.7 c 912,455.7 1540.1,1145.2 1540.1,1145.2 l -181.4,381.3 718.7,340.6 231.8,109.9 z M 18887,11121.5 c -61.1,-11.3 -122.6,-22.1 -184.3,-32.4 94.7,590.1 312.3,1963.8 406.3,2715.4 62.9,503.9 115.9,975.2 152.4,1313.1 l -438.4,-310 145.4,482.8 796.8,890.6 -315.7,-2610.1 c -157.2,-1036 -270.9,-1852.6 -270.9,-1852.6 0,0 -30,-75.8 -86.3,-196.8 l -186,-365.4 c -6.3,-11.5 -12.8,-23 -19.3,-34.6 z m -567.9,4109.3 h -335.8 v -4383.3 h 335.8 z m -2206,-4109.3 c 61.1,-11.3 122.6,-22.1 184.3,-32.4 -94.7,590.1 -312.3,1963.8 -406.3,2715.4 -63,503.9 -115.9,975.2 -152.4,1313.1 l 438.3,-310 -145.3,482.8 -796.8,890.6 315.7,-2610.1 c 157.1,-1036 270.9,-1852.6 270.9,-1852.6 0,0 30,-75.8 86.3,-196.8 l 186,-365.4 c 6.3,-11.5 12.7,-23 19.2,-34.6 h 0.1"
         style="fill:#d5d7d2;fill-opacity:1;fill-rule:evenodd;stroke:none"
         id="path30" />
      <path
         d="m 17500,17308.4 -1402.7,664.8 -181.4,-381.3 c 0,0 648.3,-711.8 1584.1,-1166.9 935.9,455.1 1584.2,1166.9 1584.2,1166.9 l -181.4,381.3 -1402.7,-664.8 h -0.1"
         style="fill:#996452;fill-opacity:1;fill-rule:evenodd;stroke:none"
         id="path32" />
      <path
         d="m 19920.3,12726.5 c 238.7,947.8 572.8,1764.2 794.3,2817.9 11.1,-1039.1 -375.3,-1973 -794.3,-2817.9 z m 2415,588.8 c 621.5,777.3 1026.1,1896.4 1062.2,2870.9 189.5,-1066.1 -233.9,-2142.1 -1062.2,-2870.9 z m -3720.5,3432.1 c 562.8,395.8 884.1,713.7 1194,1197.3 -147.9,-563.3 -675.1,-1007.5 -1194,-1197.3 z m -3535.1,-4020.9 c -238.6,947.8 -572.8,1764.2 -794.3,2817.9 -11.1,-1039.1 375.3,-1973 794.3,-2817.9 z m -2415,588.8 c -621.5,777.3 -1026.1,1896.4 -1062.2,2870.9 -189.5,-1066.1 233.9,-2142.1 1062.2,-2870.9 z m 3720.5,3432.1 c -562.8,395.8 -884,713.7 -1194,1197.3 147.9,-563.3 675.1,-1007.5 1194,-1197.3 z M 17619,14611.2 c -30.4,30.3 -72.4,49.1 -119,49.1 -46.4,0 -88.5,-18.8 -118.9,-49.3 -30.4,-30.2 -49.2,-72.3 -49.2,-118.9 0,-46.4 18.8,-88.4 49.2,-118.9 30.4,-30.4 72.5,-49.2 118.9,-49.2 46.6,0 88.6,18.8 119,49.1 30.3,30.6 49.1,72.6 49.1,119 0,46.6 -18.7,88.7 -49.1,119.1 z m 0,-2536.9 c -30.4,30.3 -72.4,49.1 -119,49.1 -46.4,0 -88.5,-18.8 -118.9,-49.3 -30.4,-30.2 -49.2,-72.3 -49.2,-118.9 0,-46.4 18.8,-88.5 49.2,-118.9 30.4,-30.4 72.5,-49.2 118.9,-49.2 46.6,0 88.6,18.8 119,49.1 30.3,30.5 49.1,72.6 49.1,119 0,46.6 -18.7,88.7 -49.1,119.1 z m -119,176.3 c 81.4,0 155.1,-33.1 208.6,-86.5 l 0.2,-0.3 c 53.5,-53.4 86.5,-127.2 86.5,-208.5 0,-81.6 -33.1,-155.4 -86.5,-208.9 h -0.2 c -53.5,-53.4 -127.2,-86.5 -208.6,-86.5 -81.5,0 -155.4,33.1 -208.8,86.5 -53.4,53.5 -86.5,127.3 -86.5,208.9 0,81.3 33.1,155.1 86.5,208.5 v 0.3 c 53.4,53.4 127.3,86.5 208.8,86.5 z m 0,2536.9 c 81.4,0 155.1,-33.1 208.6,-86.5 l 0.2,-0.3 c 53.5,-53.4 86.5,-127.2 86.5,-208.5 0,-81.6 -33.1,-155.4 -86.5,-208.8 h -0.2 c -53.5,-53.5 -127.2,-86.5 -208.6,-86.5 -81.5,0 -155.4,33 -208.8,86.5 -53.4,53.4 -86.5,127.2 -86.5,208.8 0,81.3 33.1,155.1 86.5,208.5 v 0.3 c 53.4,53.4 127.3,86.5 208.8,86.5 z m -956.2,-3892.4 v 4231.5 h 216.6 v -4231.5 z m 1695.9,0 v 4231.5 h 216.6 v -4231.5 z m 681.2,8175.5 c 565.7,-87 1261.7,-316.3 1270.3,-975.2 1234.8,-1193.4 2893.7,-1123.3 3790,-1940.8 4.1,-94.7 6.6,-189.9 6.6,-285.6 v -1.1 c -390.9,460.8 -1029.4,659.7 -1839.3,956.4 -102.3,-374.5 -286.9,-884.3 -616.8,-1094.7 179.3,176.5 446.7,951.5 497.3,1139.2 l -90.1,34.6 c -726.7,197.7 -1308.5,559.4 -1594.5,760.6 370.6,-427.6 1129.1,-780.4 1131.4,-781.6 -466.6,85.2 -923.6,345.7 -1233.3,705.8 l -8.6,-60.3 c 203.2,-356.8 854.4,-720.1 856.4,-721.2 -389,37.6 -674.8,307.2 -882.6,536.6 -123,-858 -255.5,-1706.7 -398.3,-2545.3 -152.9,-897.7 -318,-1785.2 -496,-2661.5 563.4,1410.9 1067.4,3239.5 1069.3,3246.6 -128.2,-1269.4 -690.5,-3183.5 -1527.6,-4488.1 h -195.4 c 170.6,226.9 317.9,469.2 424.4,726.6 155,1330.7 403.3,2825.7 497.7,4236 -192,-265.8 -426.1,-543 -693.8,-732 l -166.1,34 c 524.2,370 1245.2,1456.2 1298,2064.3 -92.8,-166.9 -279.1,-471 -598.5,-621.9 302.9,298.3 615.7,722.2 636.6,1169.8 -111,-306.4 -253.2,-635.3 -568.8,-767.1 243.8,241.4 466.6,685.9 501.2,1058.9 23.8,255.7 -15.6,458.9 -297.9,615.8 -239,132.8 -543.2,225.1 -768.9,262.5 l 6.5,-312.1 c 205.8,-36.3 487.1,-118.3 614.5,-298.5 8.8,57.6 23.9,186.7 7.4,237.4 174.2,-59.7 185.7,-276.3 108.9,-447.9 -247.7,-553.2 -1347.1,-1326.2 -1878.6,-1714.9 l 335.9,-972.8 c -540.4,-186.1 -696,-186.1 -1236.5,0 l 336,972.8 c -531.6,388.7 -1631,1161.6 -1878.6,1714.9 -76.9,171.6 -65.3,388.2 108.9,447.9 -16.5,-50.7 -1.4,-179.8 7.3,-237.4 127.4,180.2 408.7,262.2 614.5,298.5 l 6.6,312.1 c -225.7,-37.4 -529.9,-129.7 -768.9,-262.5 -282.4,-156.9 -321.8,-360.1 -298,-615.8 34.6,-373 257.5,-817.5 501.3,-1058.9 -315.7,131.8 -457.9,460.6 -568.8,767.1 20.9,-447.6 333.6,-871.5 636.5,-1169.8 -319.3,150.9 -505.6,455 -598.5,621.9 52.9,-608.1 773.8,-1694.3 1298,-2064.3 l -166.1,-34 c -267.7,188.9 -501.8,466.2 -693.7,732 94.3,-1410.2 342.6,-2905.2 497.6,-4235.9 106.5,-257.4 253.8,-499.7 424.4,-726.7 h -195.3 c -837.1,1304.6 -1399.5,3218.7 -1527.7,4488.1 2,-7.1 505.9,-1835.7 1069.3,-3246.6 -178,876.3 -343,1763.8 -496,2661.5 -142.8,838.6 -275.2,1687.3 -398.2,2545.3 -207.8,-229.4 -493.6,-499 -882.6,-536.6 1.9,1.1 653.1,364.4 856.3,721.2 l -8.6,60.3 c -309.6,-360.1 -766.7,-620.6 -1233.3,-705.8 2.4,1.2 760.9,354 1131.4,781.6 -286,-201.1 -867.8,-562.9 -1594.5,-760.6 l -90.1,-34.6 c 50.6,-187.7 318,-962.7 497.3,-1139.2 -329.8,210.4 -514.5,720.2 -616.8,1094.7 -809.9,-296.7 -1448.4,-495.6 -1839.3,-956.4 v 1.1 c 0,95.7 2.5,190.8 6.6,285.6 896.3,817.5 2555.2,747.4 3790,1940.8 8.7,658.9 704.6,888.2 1270.3,975.2 l 1.9,88.1 126.7,-2.5 -35.8,-1690.4 c 388.9,-322.8 918.4,-710.1 1328.1,-953.3 409.8,243.2 939.3,630.5 1328.1,953.3 l -35.8,1690.4 126.7,2.5 1.9,-88.1 h 0.1"
         style="fill:#000d24;fill-opacity:1;fill-rule:nonzero;stroke:none"
         id="path34" />
      <path
         d="m 19094.4,15105.8 c 0,-413.7 -354,-487.4 -682,-355.1 -905.4,365.2 -871.8,384.4 -1824.8,0 -327.9,-132.3 -682,-58.6 -682,355.1 v 830.2 c 0,413.7 354.1,487.5 682,355.2 953,-384.4 919.4,-365.2 1824.8,0 328,132.3 682,58.5 682,-355.2 v -830.2 0"
         style="fill:#000d24;fill-opacity:1;fill-rule:evenodd;stroke:none"
         id="path36" />
      <path
         d="m 18893.2,15105.9 v 830.1 c 0,62.4 -10.2,142.7 -66,181.4 -88.2,61.4 -249.2,23.6 -339.5,-12.8 -177.1,-71.5 -356.2,-148 -536.8,-209.8 -136.3,-46.6 -272.9,-82.3 -417.8,-85.7 -151.8,-3.6 -296.1,28.9 -439.8,74.6 -195.5,62.2 -390.6,144.1 -580.9,220.9 -90.4,36.4 -251.3,74.2 -339.5,12.9 -55.8,-38.8 -66,-119.1 -66,-181.5 v -830.1 c 0,-62.4 10.2,-142.8 66,-181.5 88.2,-61.3 249.1,-23.6 339.5,12.9 190.3,76.8 385.4,158.7 580.9,220.8 143.7,45.8 288.1,78.3 439.8,74.7 144.9,-3.5 281.5,-39.2 417.8,-85.8 180.6,-61.7 359.7,-138.3 536.8,-209.7 90.3,-36.5 251.3,-74.2 339.5,-12.9 55.8,38.8 66,119.1 66,181.5"
         style="fill:#fec919;fill-opacity:1;fill-rule:nonzero;stroke:none"
         id="path38" />
      <path
         d="m 21864.6,23929.4 c 45.1,39.3 79.9,81.8 101,126.2 -814.9,238.7 -336.7,1073.2 -778.7,1532.2 183.6,-87 366.5,-241.4 475.7,-431.3 -90.6,740.1 -382.3,1217.6 -1054.4,1410.8 177.8,129.1 445.5,160.2 687.9,123.7 -197.1,203.8 -481.8,234.5 -712.3,221.3 257.8,231.9 230,408.2 230,408.2 -477.6,-532.6 -1181.8,371 -1826.4,656.7 0,0 186.1,-356.2 111,-849.9 -545.3,1465.7 -2316.3,2039.7 -2316.3,2039.7 0,0 153.9,-636 -164.1,-1087.3 -150.4,-213.6 -213.6,-443.2 -238.4,-625.8 -317.3,600.3 -1023.2,687.4 -1023.2,687.4 0,0 543.6,-615.5 -789.8,-1415.5 -548.4,-329.1 -800.2,-883 -906.8,-1421 -143.9,-489.1 84.5,-1150.6 -625.3,-1178 51.8,-70.9 111.4,-131.7 175.5,-182.9 -335.5,-51.3 -654.9,-282.7 -840.3,-703.7 -245.5,-557.4 -261.7,-1309.1 -41.1,-1707.9 -7.3,152.5 21,494.7 53.8,656.2 39.8,-503.9 280,-1282.1 1361.6,-1433.9 49.4,-6.9 96,-10.9 140.4,-12.2 -87.7,-323.8 -262.7,-686.4 -608.3,-943.5 297.5,-40.5 547.1,13.6 753.7,115.8 -300.5,-796.8 -212.2,-1486.5 -212.2,-1486.5 0,0 203,215.3 539.8,454.5 -19.2,-1015.5 919.3,-2096.1 919.3,-2096.1 0,0 -44.9,353.6 -7,780.2 926.2,-1599.9 3717.5,-1599.9 4643.7,0 38,-426.6 -6.9,-780.2 -6.9,-780.2 0,0 938.4,1080.6 919.3,2096.1 336.7,-239.2 539.8,-454.5 539.8,-454.5 0,0 88.2,689.7 -212.3,1486.5 206.6,-102.2 456.2,-156.3 753.8,-115.8 -352,261.8 -527,633.2 -613.1,961.4 1049.2,164.5 1284.3,930.2 1323.6,1428.2 32.8,-161.5 61.1,-503.7 53.8,-656.2 220.6,398.8 204.4,1150.5 -41,1707.9 -171.7,389.7 -458.2,616.9 -765.8,689.2 v 0"
         style="fill:#000d24;fill-opacity:1;fill-rule:nonzero;stroke:none"
         id="path40" />
      <path
         d="m 15386.5,25413 c 146.2,301.8 190.4,401.8 199.4,606.6 -559.4,-541 -1059.8,-649.3 -1438.6,-1405.2 250.8,1154.8 883.3,1200.8 1274.7,2154.3 6.5,-283 -19.4,-504.4 -120.3,-713 217.8,200.8 653.7,554.8 806.3,1251.7 132.9,-1000.6 -217.1,-1602.4 -721.6,-1894.4 z m 3947.5,749.3 c 868.4,-446.5 1348.3,-1391.6 1510.8,-1951.5 17.3,403.2 -226.1,1056.9 -406.8,1395.9 255.9,-175.4 430.9,-370.6 553.7,-587.2 -42.5,479 -455.5,934.1 -871.6,1152.1 67.1,-104.3 134.2,-208.6 201.2,-313 -268.3,143.5 -679.8,237.5 -987.4,303.7 z m -2223.5,2434.4 c 0,0 1413.7,-793.9 1561.8,-2127.2 -245.1,275.7 -404.2,376.4 -387.1,176.3 36.6,-427.9 38.9,-637.4 -225.5,-996.3 45.7,255.3 -12.2,508.8 -111.7,773.7 9.9,-505.5 -533.3,-1050.3 -533.3,-1050.3 0,0 320.2,1521.5 -190.8,2215 474.2,-283.9 713,-639.9 713,-639.9 0,0 3.4,557.8 -826.4,1648.7"
         style="fill:#574f5e;fill-opacity:1;fill-rule:evenodd;stroke:none"
         id="path42" />
      <path
         d="m 17500.1,20868.1 c 31.6,-197.4 63.4,-407.5 74,-621.2 223.5,-3.7 453.3,-24.1 746,-61.2 383.2,-48.7 724.8,-97.5 957,-84.3 306.3,17.3 413,167.5 144.4,386.9 314.2,-101.5 497.6,-235.1 412.5,-589.8 0,0 -58.9,95.3 -122.4,140.3 -35.5,-181.7 -144.7,-655.4 -384.2,-1077.5 -296.9,-523.1 -623.1,-494.9 -1047,-417.9 -613.2,111.2 -947.4,111.2 -1560.6,0 -423.9,-77 -750.1,-105.2 -1047,417.9 -239.6,422.1 -348.7,895.7 -384.2,1077.5 -63.5,-45 -122.4,-140.3 -122.4,-140.3 -85.1,354.7 98.3,488.3 412.5,589.8 -268.6,-219.4 -162,-369.6 144.4,-386.9 232.2,-13.2 573.8,35.7 957,84.3 292.7,37.1 522.5,57.5 746,61.2 10.5,213.7 42.4,423.7 74,621.2 z m -2702.6,2934.8 c 120.2,204.7 281.4,403.2 488.3,590.3 -385.7,-81.9 -637.4,-292.2 -637.4,-292.2 590.7,1074.4 1677.8,862.4 2455,147.2 178.5,-164.3 314.9,109.5 -91.7,517.8 213.2,-93.5 375,-244.3 488.4,-392.3 113.3,148 275.2,298.7 488.4,392.3 -406.7,-408.3 -270.2,-682.1 -91.7,-517.8 777.1,715.2 1864.3,927.2 2455,-147.2 0,0 -251.7,210.2 -637.4,292.2 206.9,-187.1 368.1,-385.6 488.3,-590.3 h -2069.9 c -112.2,0 -200.4,-44.1 -267.2,-112.8 h -731.2 c -66.7,68.7 -154.9,112.8 -267.2,112.8 h -2069.8 z m 2843.7,-2542.5 c 5.5,120.3 20.3,294.3 107.2,419.3 162.7,234 579,179.9 590,-59.6 11.2,-245.6 -241.8,-342.2 -241.8,-342.2 0,0 236.4,265.7 52.2,392.3 24.2,-191.2 -148,-253.4 -359.4,-225.1 84.8,-45.5 176.6,-47.9 249.1,-33.7 -87.4,-72.1 -235.5,-66.9 -293.4,-64.4 68.3,-17.6 138.9,-26.3 211,-24.6 -36.2,-44.7 -194.8,-88.5 -314.9,-62 z m -282.2,0 c -5.5,120.3 -20.4,294.3 -107.2,419.3 -162.8,234 -579,179.9 -590,-59.6 -11.2,-245.6 241.7,-342.2 241.7,-342.2 0,0 -236.3,265.7 -52.1,392.3 -24.2,-191.2 148,-253.4 359.4,-225.1 -84.8,-45.5 -176.6,-47.9 -249.2,-33.7 87.5,-72.1 235.6,-66.9 293.5,-64.4 -68.3,-17.6 -138.9,-26.3 -211,-24.6 36.1,-44.7 194.8,-88.5 314.9,-62 z m -4664.5,1081.5 c 39.2,-310.8 157.4,-621 368.5,-849.6 -66.2,152.2 -103.3,331.6 -83.9,539.2 37.3,-462.2 617.8,-896.4 1040.8,-896.6 352.7,1661.2 -924.3,1352.9 -709.6,751 -344.3,246.1 -71.9,967.4 469.9,960 -279.5,103.1 -667.5,20.9 -814.5,-287.9 40.8,577 640.4,708.3 1034.6,482.1 -283.5,876.5 -1467.5,585.1 -1305.8,-698.2 z m 9611.1,0 c -39.2,-310.8 -157.4,-621 -368.5,-849.6 66.2,152.2 103.2,331.6 83.8,539.2 -37.3,-462.2 -617.7,-896.4 -1040.8,-896.6 -352.7,1661.1 924.3,1352.9 709.7,751 344.2,246.1 71.9,967.4 -469.9,960 279.4,103.1 667.4,20.9 814.4,-287.9 -40.8,577 -640.4,708.3 -1034.6,482.1 283.6,876.4 1467.6,585.1 1305.9,-698.2 z m -5599.1,-4674.1 c -300.3,448.3 -608.3,534.8 -1024.2,574 -415.8,39.3 -693.1,251.6 -754.7,526.9 -40.6,181.4 -137.9,291 -201.9,506.5 -281.3,948.3 207.9,1626.5 1166.5,1784.8 -380.1,54.8 -833.8,-13.9 -1091.9,-171.3 -40.7,203.2 -40,446.3 13.4,671.4 181.5,-103.1 406.7,-173.8 685.5,-208.6 239.2,-30 480.6,-21.3 705.5,27.7 11.1,-20.6 25.1,-40.4 42.4,-59.1 172.4,-186.5 555.4,-142.3 527.4,-413 251.5,307.1 -268.9,375.1 -385.2,500.9 -151.8,164.3 143.2,525.8 378.6,594.4 200.1,58.2 440.8,-22.2 599.7,-148.3 -56.2,88.7 -127.4,159.4 -207.1,210.1 89.1,176.3 139.9,385.5 139.9,628.8 v 466.7 c 0,69 56.4,125.3 125.3,125.3 h 148.7 c 68.9,0 125.2,-56.3 125.2,-125.3 V 22693 c 0,-243.3 50.9,-452.5 140.1,-628.8 -79.7,-50.7 -151,-121.4 -207.1,-210.1 159,126.1 399.6,206.5 599.7,148.3 235.5,-68.6 530.4,-430.1 378.5,-594.4 -116.2,-125.8 -636.6,-193.8 -385.1,-500.9 -28,270.7 355,226.4 527.4,413 17.3,18.7 31.3,38.5 42.5,59.2 224.8,-49 466.1,-57.8 705.3,-27.8 278.8,34.8 504,105.5 685.6,208.6 53.4,-225 54,-468.1 13.4,-671.4 -258.1,157.4 -711.8,226.1 -1091.9,171.3 958.6,-158.3 1447.8,-836.5 1166.5,-1784.8 -63.9,-215.5 -161.4,-325.1 -201.9,-506.5 -61.6,-275.3 -338.9,-487.6 -754.7,-526.9 -415.9,-39.2 -723.9,-125.7 -1024.2,-574 -316.7,-472.7 -1270.5,-472.7 -1587.2,0 v 0"
         style="fill:#eec09f;fill-opacity:1;fill-rule:evenodd;stroke:none"
         id="path44" />
      <path
         d="m 15010.8,20984.4 c -78.6,-26.7 -150,-58.7 -210.6,-95.6 -39.3,196.8 -39.9,431.1 8.6,650.2 l 91.7,-24.2 c 165.2,-78.7 362.7,-133.8 598.6,-163.3 12.1,-1.5 24.2,-2.9 36.3,-4.2 l 530.1,-139.9 c 0,0 -574.6,-100 -1057.5,-15.4 -7.2,-79.7 -2.9,-154.4 2.8,-207.6 z m -213.4,2818.5 c 120.2,204.7 281.5,403.2 488.3,590.3 -385.7,-81.9 -637.4,-292.2 -637.4,-292.2 419.4,762.9 1089.2,877.1 1720.6,623.2 -317.3,32.8 -723,8.8 -1085.2,-215.7 342.1,54.3 638.4,25.1 638.4,25.1 0,0 -494.1,-244.9 -743,-730.7 z m -797.1,-762.8 c 0,0 -322.3,539.7 -785.3,357.9 -349.2,-137.3 -503.9,-698 -338.7,-1324.8 40.9,158.6 101.8,266.7 101.8,266.7 0,0 44.5,-845.1 1041.7,-1205 -423,0.2 -1003.5,434.4 -1040.7,896.6 -19.4,-207.6 17.6,-387 83.8,-539.2 -211.1,228.6 -329.3,538.8 -368.5,849.6 -161.7,1283.3 1022.3,1574.7 1305.9,698.2 z m 1578.4,-2551.9 c 0,0 -226.7,-240.7 112.3,-289.6 338.9,-48.9 1405.2,54.9 1735,48.3 v 0 c -223.5,-3.7 -453.3,-24.1 -746,-61.3 -383.2,-48.6 -724.8,-97.4 -957,-84.3 -295.2,16.7 -404.9,156.8 -172.4,363.1 l 28,23.8 z M 16694,21827 c 0,0 -151.9,-159.9 -154.3,-313.9 -2.5,-154 173.6,-155.9 245.8,-266.5 72.4,-110.6 66.1,-186.8 52,-225.7 l -0.3,-0.6 c 54,213.6 -347.5,279.1 -447.9,387.7 -147.1,159.2 125.2,503.5 356.4,587.1 -83.9,-76.6 -225.8,-223.2 -270.4,-373.5 83.3,110.7 218.7,205.4 218.7,205.4 z m -430.2,-3732.3 c -173.7,92.7 -362.7,126.5 -581.5,147.1 -415.9,39.3 -693.1,251.6 -754.7,526.9 -40.6,181.4 -138,291 -201.9,506.5 -281.3,948.3 207.9,1626.5 1166.4,1784.8 -1179.2,-268.1 -1228.8,-1420.7 -763.3,-2248.6 -54.9,298.7 -69.4,614.4 -69.4,614.4 78.3,-309.8 287,-809.8 570.6,-973.8 215.9,-124.8 434.6,-199.5 633.8,-357.2 v -0.1"
         style="fill:#fff4e3;fill-opacity:1;fill-rule:evenodd;stroke:none"
         id="path46" />
      <path
         d="m 18319.8,24567.7 c 712.4,430.5 1542.6,423.5 2032,-466.7 0,0 -251.7,210.2 -637.4,292.2 206.9,-187.1 368.1,-385.7 488.3,-590.3 h -890.5 c -157.3,596.2 -679.9,735.9 -992.4,764.8 z m 2961.1,-1431.3 c -98.3,-14.2 -194.6,-46.7 -281.2,-96.3 177.5,548.5 707.6,639.6 1039.8,316.3 -199.3,81.1 -488.4,104.8 -758.6,-220 z m 375.7,-479 c -107.7,113.5 -257.4,190.9 -436.7,188.5 279.4,103.1 667.4,20.9 814.4,-287.9 0,0 -110.6,108.1 -377.7,99.4 z m -345.9,-1449.6 c -112.8,-46.5 -226.4,-72.9 -330.5,-73 -352.8,1661.2 924.2,1353 709.6,751 0,0 -200.8,260.9 -365.7,141.8 -137.5,-99.3 -166.7,-510.5 -13.4,-819.7 z m -3810.6,-339.7 c 0,0 124.8,-279.7 202.1,-625.2 -43.2,1.9 -85.7,3.2 -128.1,3.9 -10.5,213.7 -42.5,423.8 -74,621.3 z m 339.4,1196 c -89.1,176.3 -139.9,385.6 -139.9,628.9 v 466.7 c 0,57.5 -39.2,106.2 -92.2,120.8 -30.9,-793.5 50.9,-1080.1 101,-1326.9 h 0.1 c 39.8,43.6 83.9,80.5 131,110.5 z m 386.2,-1157 c 0.4,0.5 233.6,274.8 834.4,205 -146.3,-31 -260.8,-93 -260.8,-93 0,0 799,-89 1006.8,-556.5 -317.3,198.7 -667.7,201.5 -667.7,201.5 0,0 277.2,-226.8 247.4,-410 -19.2,-118.2 -609.2,-85.2 -1127.1,-60.8 20.1,-2.5 40.6,-5.1 61.3,-7.7 383.3,-48.6 724.9,-97.4 957.1,-84.3 306.3,17.4 413,167.6 144.4,386.9 314.2,-101.5 497.6,-235 412.5,-589.8 0,0 -58.9,95.3 -122.4,140.4 -35.5,-181.8 -144.7,-655.5 -384.2,-1077.5 -296.9,-523.2 -623.1,-494.9 -1047,-418 -259.6,47.1 -469.3,74.2 -671.2,81.4 525.7,-95.7 702,-196.8 748.1,-324.3 56,-155 -292.6,-957.2 -1087.5,-965.9 383.3,-71.8 826.9,39.3 1023.9,333.3 300.3,448.3 608.3,534.8 1024.2,574 415.8,39.3 693,251.6 754.6,526.9 40.6,181.4 138.1,291 202,506.5 281.2,948.3 -208,1626.5 -1166.5,1784.8 380.1,54.8 833.7,-13.9 1091.8,-171.3 40.7,203.3 40,446.4 -13.3,671.5 -181.6,-103.2 -406.8,-173.9 -685.6,-208.7 -234,-29.3 -469.9,-21.6 -690.5,24.6 l -19,-4.2 c -10.4,-18 -23.1,-35.3 -38.3,-51.8 -172.4,-186.5 -555.4,-142.4 -527.4,-413 z m -0.2,0.2 0.2,-0.2 v 0 z m -249.7,1103.5 c 82.5,-3.8 180.7,-26.9 282.4,-91.9 144,-92 193.7,-216.7 209,-311.8 -55.1,81.4 -124.5,118.4 -124.5,118.4 0,0 171.2,-209.4 -47.6,-370.8 -218.9,-161.5 -125.9,-354.8 -125.9,-354.8 v 0 c -85.7,229.9 338.1,296.1 441.6,408.1 151.8,164.3 -143.1,525.9 -378.6,594.4 -81.4,23.7 -169.7,24.4 -256.5,8.4 z m -1011.7,-3755.7 c 340,33.5 732,33.5 1072,0 -229.7,285.7 -842.4,285.7 -1072,0"
         style="fill:#996452;fill-opacity:1;fill-rule:evenodd;stroke:none"
         id="path48" />
      <path
         d="m 18527.7,19988.4 c 510.2,-50.4 716.4,-104.1 767.1,-147.8 50.7,-43.7 47,-248.4 47,-248.4 0,0 -408.4,-154.8 -1053.7,-182.5 554.2,-61.2 934.3,-146.6 934.3,-146.6 0,0 -94,-305.6 -271.3,-372.7 -287.4,-108.9 -2614.7,-108.9 -2902,0 -177.3,67.1 -271.4,372.7 -271.4,372.7 0,0 380.1,85.4 934.3,146.6 -645.2,27.7 -1053.7,182.5 -1053.7,182.5 0,0 -3.6,204.7 47,248.4 50.7,43.7 256.9,97.4 767.1,147.8 641.1,63.2 1414.3,63.2 2055.3,0 v 0"
         style="fill:#fefdf9;fill-opacity:1;fill-rule:evenodd;stroke:none"
         id="path50" />
      <path
         d="m 15956.9,19298.9 c -114.7,-21.3 -179.2,-35.8 -179.2,-35.8 0,0 94,-305.6 271.4,-372.7 143.7,-54.5 797.3,-81.7 1451,-81.7 653.6,0 1307.3,27.3 1451,81.7 177.3,67.1 271.4,372.7 271.4,372.7 0,0 -64.6,14.5 -179.2,35.8 -34.7,-81.8 -119.5,-248 -248,-284.3 -132.6,-37.5 -2457.8,-37.5 -2590.5,0 -128.4,36.3 -213.2,202.5 -247.9,284.3 z m 2570.8,689.5 c 510.2,-50.4 716.4,-104.1 767.1,-147.8 50.6,-43.7 47,-248.5 47,-248.5 0,0 -408.5,-154.7 -1053.7,-182.4 0,0 806.8,188.1 865.5,209.7 58.7,21.6 18.5,166.6 18.5,166.6 -1075.5,95.7 -2268.6,95.7 -3344.1,0 0,0 -40.1,-145 18.6,-166.6 58.6,-21.6 865.5,-209.7 865.5,-209.7 -645.3,27.7 -1053.8,182.4 -1053.8,182.4 0,0 -3.6,204.8 47,248.5 50.7,43.7 256.9,97.4 767.2,147.8 320.5,31.6 674,47.5 1027.6,47.5 353.6,0 707.1,-15.9 1027.6,-47.5 v 0"
         style="fill:#e6e6e6;fill-opacity:1;fill-rule:evenodd;stroke:none"
         id="path52" />
      <path
         d="m 13999.2,23690.7 v -195.4 h 199.7 l 2,-110.1 c 8.7,-475.8 50.6,-1094.4 367.5,-1477.4 236.7,-286 587.3,-400.4 944.7,-445 225.8,-28.2 450.8,-20.8 659.3,23.4 -7.8,80.1 15.7,166.3 59.2,249.1 -212.6,-62.1 -452.1,-75.7 -690.3,-46 -295.6,37 -600.2,126.2 -797,364.1 -275.2,332.5 -307.6,924.3 -315.1,1336 l -1.4,73 h 2263.9 c 179.3,0 268.2,-136.2 268.2,-302.7 V 22693 c 0,-214.9 -51.4,-393 -140.2,-536.9 81.5,4.5 163.2,-9.5 240.1,-40.2 82,162 128.4,354.2 128.4,577.1 v 466.7 c 0,130.9 106.6,237.6 237.5,237.6 h 148.7 c 130.9,0 237.4,-106.7 237.4,-237.6 V 22693 c 0,-223 46.4,-415.1 128.4,-577.1 76.9,30.7 158.6,44.7 240.2,40.2 -88.8,143.9 -140.3,322.1 -140.3,536.9 v 466.7 c 0,166.5 88.9,302.7 268.2,302.7 h 2263.9 l -1.3,-73 c -7.6,-411.7 -40,-1003.5 -315.2,-1336 -196.8,-237.9 -501.4,-327.1 -797,-364.1 -238.1,-29.7 -477.5,-16.1 -690.1,45.9 43.5,-82.8 66.9,-168.9 59.1,-249.1 208.5,-44.1 433.5,-51.5 659.3,-23.3 357.4,44.7 707.9,159 944.7,445 316.9,383 358.7,1001.6 367.4,1477.4 l 2.1,110.1 h 199.6 v 195.4 h -2868 c -73.8,0 -135.3,-25.9 -186.7,-78.8 l -33,-34 H 17087 l -33.1,34 c -51.4,52.9 -112.8,78.8 -186.6,78.8 h -2868 -0.1"
         style="fill:#fec919;fill-opacity:1;fill-rule:evenodd;stroke:none"
         id="path54" />
      <path
         d="m 19909.3,23350.1 h -211 l -747,-1542.3 c 65.5,-11 132.9,-17.7 201.1,-20.3 z m -4323.5,-1553 c 68.7,-7.5 137.6,-11.1 205.7,-10.8 l 757.5,1563.8 h -211 z m -500.6,131.2 c 98.2,-48.5 205.5,-80.6 313.9,-102.5 l 738.4,1524.3 h -363.6 z m 4049,1421.8 -635.8,-1312.6 c 56.9,-40.3 111.4,-89.3 159.2,-143.5 36.7,-16.2 74.8,-30.5 114,-43 l 726.2,1499.1 h -363.6 v 0"
         style="fill:#fff4e3;fill-opacity:1;fill-rule:evenodd;stroke:none"
         id="path56" />
      <path
         d="m 11709.5,22656.4 c 17.7,15.1 35.6,30.2 53.4,45.2 l 426.5,-21.3 z m -622.8,-585.4 c 34,35.2 67.9,70.4 102.4,105 l 1000.3,-50 z m -509.8,-574.2 c 42.3,51.9 85.2,103.4 128.7,154.4 l 1483.8,-74 z m -423.5,-564.7 c 45.6,66 92,131.5 139.4,196.2 l 1896.6,-94.6 z M 9798.96,20376 c 45.72,78 92.59,155.2 140.59,231.6 l 2249.85,-112.3 z m -296.09,-547.9 c 43.62,87.9 88.36,175.1 134.76,261.4 l 2316.17,-115.6 c -6,-8.1 -11.8,-16.3 -17.8,-24.4 z m -246.05,-540.5 c 40.03,96.3 81.45,191.8 124.72,286.4 l 2227.56,-111.1 c -12.1,-19.8 -23.9,-39.8 -35.9,-59.7 L 9256.8,19287.6 Z M 9055,18754.2 c 35.31,103.3 72.74,205.7 111.69,307.2 l 2160.21,-107.8 c -14.7,-29.3 -29.5,-58.7 -43.8,-88.2 z m -161.32,-526.5 c 29.78,108.8 61.22,217 94.97,324.1 l 2109.55,-105.2 c -14.8,-36.9 -29.3,-73.9 -43.5,-111.1 l -2161.04,-107.8 z m -125.67,-520 c 23.78,113.3 49.71,225.8 77.72,337.5 l 2071.57,-103.3 c -13.5,-42.8 -26.3,-85.8 -39,-128.9 z m -92,-513.7 c 17.46,116.6 37.3,232.5 59.16,347.7 L 10780,17439.6 c -11,-47.2 -21.3,-94.6 -31.3,-142.2 z m -60.4,-507.5 c 10.86,118.8 23.55,237.2 39.05,354.7 L 10683.1,16940 c -7.8,-50.3 -15,-100.8 -21.7,-151.5 z m -35.35,-997.4 c -1.38,59.9 -2.29,119.9 -2.29,180.1 0,60.2 0.91,120.2 2.29,180 l 2021.04,-100.8 c -0.3,-26.4 -1,-52.8 -1,-79.2 0,-26.5 0.7,-52.9 1,-79.3 z m 22.98,-494.5 c -8.89,119 -14.86,238.7 -19.11,358.9 l 2029.07,-101.3 c 3.2,-52.4 6.7,-104.6 11,-156.7 0,0 -2020.95,-100.9 -2020.96,-100.9 z m 51.42,-497.4 c -15.5,117.4 -28.19,235.8 -39.04,354.7 l 2045.78,-102.1 c 6.8,-50.7 13.9,-101.1 21.7,-151.4 z m 80.52,-500.5 c -21.87,115.1 -41.71,231 -59.17,347.6 l 2072.69,-103.4 c 10,-47.5 20.3,-95 31.3,-142.2 z m 110.57,-503.6 c -28.03,111.7 -53.96,224.3 -77.72,337.6 l 2110.37,-105.3 c 12.6,-43.1 25.5,-86.1 38.9,-128.9 z m 142.92,-506.6 c -33.75,107.1 -65.18,215.3 -94.96,324.2 l 2160.99,-107.9 c 14.2,-37.1 28.7,-74.2 43.6,-111 l -2109.61,-105.3 z m 178.05,-509.6 c -38.95,101.6 -76.39,203.9 -111.7,307.2 L 11283.1,12873 c 14.3,-29.6 29.1,-58.9 43.9,-88.3 z m 214.84,-512.6 c -43.26,94.6 -84.69,190.2 -124.71,286.5 l 2316.45,-115.6 c 11.9,-19.9 23.7,-39.9 35.8,-59.7 l -2227.51,-111.1 z m 256.09,-515.4 c -46.39,86.2 -91.13,173.5 -134.75,261.4 l 2433.2,-121.4 c 5.9,-8.1 11.8,-16.4 17.8,-24.4 z m 301.9,-518.2 c -48,76.4 -94.86,153.6 -140.59,231.6 L 12189.4,11243 Z m 353.25,-520.7 c -47.4,64.8 -93.8,130.2 -139.4,196.2 l 2036,-101.6 z m 412.8,-522.9 c -43.4,51 -86.3,102.5 -128.7,154.5 l 1612.5,-80.5 z m 483.6,-524.8 c -34.6,34.6 -68.5,69.8 -102.5,104.9 l 1102.7,-55 z m 573.7,-525.6 c -17.8,15 -35.7,30 -53.4,45.2 l 479.9,-23.9 z m 11527.8,13619.6 c -17.8,15.1 -35.7,30.2 -53.5,45.2 l -426.4,-21.3 z m 622.7,-585.4 c -34,35.2 -67.9,70.4 -102.4,105 l -1000.2,-50 z m 509.8,-574.2 c -42.3,51.9 -85.2,103.4 -128.7,154.4 l -1483.7,-74 z m 423.6,-564.7 c -45.6,66 -92.1,131.5 -139.5,196.2 l -1896.5,-94.6 z m 354.4,-556.1 c -45.8,78 -92.6,155.2 -140.7,231.6 l -2249.7,-112.3 z m 296,-547.9 c -43.6,87.9 -88.3,175.2 -134.7,261.4 l -2316.2,-115.6 c 6,-8.1 11.8,-16.3 17.8,-24.4 z m 246.1,-540.5 c -40,96.3 -81.5,191.9 -124.7,286.4 L 23391,19462.8 c 12.1,-19.8 24,-39.8 35.8,-59.7 z m 201.8,-533.4 c -35.3,103.3 -72.7,205.7 -111.7,307.2 l -2160.2,-107.8 c 14.7,-29.3 29.5,-58.6 43.8,-88.2 z m 161.3,-526.5 c -29.7,108.8 -61.2,217 -94.9,324.1 l -2109.6,-105.2 c 14.8,-36.9 29.3,-73.9 43.6,-111.1 l 2161,-107.8 z m 125.7,-520 c -23.8,113.3 -49.7,225.8 -77.7,337.5 l -2071.6,-103.3 c 13.5,-42.8 26.3,-85.8 39,-128.9 z m 92,-513.7 c -17.5,116.6 -37.3,232.5 -59.2,347.7 l -2044.8,-102 c 11,-47.3 21.3,-94.7 31.3,-142.3 z m 60.4,-507.5 c -10.8,118.9 -23.6,237.2 -39,354.7 L 24317,16939.9 c 7.8,-50.3 15,-100.8 21.7,-151.4 z m 35.3,-997.4 c 1.4,59.9 2.3,119.9 2.3,180.1 0,60.2 -0.9,120.2 -2.3,180 l -2021,-100.8 c 0.4,-26.4 1,-52.8 1,-79.2 0,-26.5 -0.6,-52.9 -1,-79.3 z m -22.9,-494.5 c 8.9,119 14.9,238.7 19.1,358.9 l -2029.1,-101.3 c -3.1,-52.4 -6.7,-104.6 -11,-156.7 z m -51.4,-497.4 c 15.4,117.4 28.2,235.8 39,354.7 l -2045.8,-102.1 c -6.8,-50.6 -13.9,-101.1 -21.7,-151.4 z m -80.6,-500.5 c 21.9,115.1 41.7,231 59.2,347.6 l -2072.7,-103.4 c -10,-47.5 -20.3,-95 -31.3,-142.2 z m -110.5,-503.6 c 28,111.7 53.9,224.3 77.7,337.6 l -2110.4,-105.3 c -12.6,-43.1 -25.4,-86.1 -38.9,-128.9 z m -143,-506.6 c 33.8,107.2 65.2,215.3 95,324.2 l -2161,-107.8 c -14.2,-37.2 -28.7,-74.2 -43.6,-111.1 z m -178,-509.6 c 39,101.6 76.4,203.9 111.7,307.2 L 23717,12872.9 c -14.3,-29.6 -29.1,-58.9 -43.9,-88.3 z m -214.9,-512.5 c 43.3,94.5 84.8,190.1 124.8,286.4 l -2316.5,-115.6 c -11.9,-19.9 -23.7,-39.9 -35.8,-59.7 z m -256,-515.5 c 46.4,86.2 91.1,173.5 134.7,261.4 L 23064,11788.8 c -5.9,-8.1 -11.7,-16.3 -17.7,-24.4 z m -302,-518.2 c 48.1,76.4 94.9,153.7 140.7,231.6 l -2390.4,-119.3 z m -353.2,-520.7 c 47.4,64.8 93.9,130.2 139.5,196.2 l -2036,-101.6 z m -412.8,-522.9 c 43.4,51 86.3,102.5 128.7,154.5 l -1612.4,-80.5 z m -483.6,-524.8 c 34.6,34.6 68.5,69.8 102.5,104.9 l -1102.7,-55 z m -573.7,-525.6 c 17.8,15 35.7,30.1 53.5,45.2 l -479.9,-23.9 z m 3159.7,7506.9 -2021,-100.8 c 4.3,-52.1 7.8,-104.4 11,-156.8 l 2029,-101.2 c -4.2,120.1 -10.2,239.9 -19,358.8 z m -17793.68,0 2020.98,-100.8 c -4.3,-52.1 -7.9,-104.4 -11,-156.8 l -2029.1,-101.2 c 4.25,120.1 10.22,239.9 19.12,358.8"
         style="fill:#000d24;fill-opacity:1;fill-rule:evenodd;stroke:none"
         id="path60" />
      <path
         d="M 8405.66,9330.8 C 7663.56,8876 7272.77,8229 6792.15,7537.4 c -440.55,784.2 -570.43,1673.7 -526.81,2568.5 -859.95,75.1 -1670.6,63.6 -2528.61,17 768.68,1243.1 1948.99,2783.4 3375.41,3297.5 625.31,225.3 1024.92,52.5 961.38,-344.2 l 591.66,-1481.3 c 1123.95,730.4 2367.52,1536.8 3581.32,2005.5 3344.1,1290.9 7162.9,1290.9 10507,0 1213.8,-468.7 2457.4,-1275.1 3581.3,-2005.5 l 591.7,1481.3 c -63.6,396.7 336.1,569.5 961.4,344.2 1426.4,-514.1 2606.7,-2054.5 3375.4,-3297.5 -858,46.6 -1668.7,58.1 -2528.6,-17 43.6,-894.8 -86.3,-1784.3 -526.8,-2568.5 -480.7,691.6 -871.5,1338.6 -1613.6,1793.4 -155.4,-333.4 -306.4,-633.8 -513.8,-940.5 -599.4,-885.9 -1530.9,-520.4 -2244.8,-40.6 -644.1,432.8 -1370,807.6 -2076.3,1134.3 -2684.7,1242.2 -5834.1,1242.2 -8518.8,0 -706.3,-326.7 -1432.2,-701.5 -2076.3,-1134.3 -713.9,-479.8 -1645.35,-845.3 -2244.76,40.6 -207.45,306.7 -358.4,607.1 -513.88,940.5 v 0"
         style="fill:#000d24;fill-opacity:1;fill-rule:evenodd;stroke:none"
         id="path62" />
      <path
         d="M 6842.93,8214.9 C 7269.9,8824.5 7603,9251.5 8253.47,9642 c -161.17,302.5 -370.23,586.1 -819.76,924.4 -478.29,359.9 -875.85,846 -544.68,1454.4 182.1,334.6 392.05,451 618.29,716.7 306.61,360.1 146.39,512.3 -279.12,359 -707.8,-255.1 -1833.8,-1066.6 -2847.77,-2597 760.05,25.3 1500.4,-8.6 2257.38,-83.3 -68.14,-682.7 -17.66,-1544.1 205.12,-2201.3 z m 21314.17,0 c -427,609.6 -760.1,1036.6 -1410.6,1427.1 161.2,302.5 370.3,586.1 819.8,924.4 478.3,359.9 875.9,846 544.7,1454.4 -182.1,334.6 -392.1,451 -618.3,716.7 -306.6,360.1 -146.4,512.3 279.1,359 707.8,-255.1 1833.8,-1066.6 2847.8,-2597 -760.1,25.3 -1500.4,-8.6 -2257.4,-83.3 68.2,-682.7 17.7,-1544.1 -205.1,-2201.3"
         style="fill:#fec919;fill-opacity:1;fill-rule:nonzero;stroke:none"
         id="path64" />
      <path
         d="m 12370.7,13279.2 c -1186.3,-458 -2420.51,-1260 -3534.64,-1983.9 -320.06,-208 -668.7,-467 -1036.44,-578.7 552.76,-453.5 723.81,-820.6 930.44,-1264.2 117.9,-253.2 248.27,-533 475.58,-869.1 468.85,-692.9 1228.26,-309.6 1766.96,52.5 660.8,444.1 1399.5,826.3 2123.6,1161.3 2776.4,1284.7 6031.2,1284.7 8807.6,0 724.1,-335 1462.8,-717.2 2123.6,-1161.3 538.7,-362.1 1298.1,-745.4 1767,-52.5 227.3,336.1 357.6,615.9 475.5,869.1 206.7,443.6 377.7,810.7 930.5,1264.2 -367.8,111.7 -716.4,370.7 -1036.5,578.7 -1114.1,723.9 -2348.3,1525.9 -3534.6,1983.9 -3264.3,1260.2 -6994.3,1260.2 -10258.6,0 v 0"
         style="fill:#fec919;fill-opacity:1;fill-rule:nonzero;stroke:none"
         id="path66" />
      <path
         d="m 8476.89,11471.3 c -136.6,-90.2 -274.73,-180.7 -414.53,-260.7 -602.63,-345 -1167.5,100.9 -871.04,645.5 155.13,285.1 375.79,421.5 577.75,658.7 75.74,89 136.65,173.8 183.84,253.8 145.11,-447 320.33,-880.3 523.96,-1297.3 z m 18046.31,0 c 136.6,-90.2 274.7,-180.7 414.5,-260.7 602.7,-345 1167.5,100.9 871.1,645.5 -155.2,285.1 -375.8,421.5 -577.8,658.7 -75.7,89 -136.6,173.8 -183.8,253.8 -145.1,-447 -320.3,-880.3 -524,-1297.3 v 0"
         style="fill:#f29c11;fill-opacity:1;fill-rule:nonzero;stroke:none"
         id="path68" />
      <path
         d="m 17336.7,15823.3 c -82.2,13.3 -162.9,34.8 -243.5,60.4 -195.5,62.1 -390.5,144.1 -580.9,220.9 -90.3,36.4 -251.2,74.2 -339.5,12.9 -55.7,-38.8 -66,-119.1 -66,-181.5 v -830.2 c 0,-62.3 10.3,-142.7 66.1,-181.4 88.2,-61.4 249.1,-23.6 339.4,12.9 128.7,51.9 259.6,106.2 391.3,155.1 -256.1,-54.7 -650.3,-199.5 -650.3,93.7 v 688.6 c 0,196.8 150.3,179.3 334.8,101.8 185.1,-77.8 550.2,-155.6 748.6,-153.2 z m 1556.5,-717.5 v 830.2 c 0,62.4 -10.2,142.7 -66,181.4 -88.2,61.4 -249.2,23.6 -339.5,-12.8 -39.3,-15.9 -78.7,-32 -118.2,-48.2 210.6,28.7 410.1,103 410.1,-161.4 v -709.5 c 0,-310.1 -316,-144.5 -575.4,-49 -217.3,80 -422.8,99.3 -586.2,90.6 113.9,-12.3 223.5,-42.7 332.9,-80.1 180.6,-61.7 359.7,-138.3 536.8,-209.8 90.3,-36.4 251.3,-74.1 339.5,-12.9 55.8,38.9 66,119.2 66,181.5 v 0"
         style="fill:#f29c11;fill-opacity:1;fill-rule:nonzero;stroke:none"
         id="path72" />
      <g
         aria-label="Coorditang"
         transform="matrix(-1.1749067,0,0,0.99792016,39999.519,211.43915)"
         id="text1149"
         style="font-size:6000px;line-height:0;font-family:'Aberfoyle South Script';-inkscape-font-specification:'Aberfoyle South Script, Normal';stroke-width:123;stroke:#411b0b;stroke-opacity:1">
        <path
           d="m 23679.202,10611.302 q -12.657,20.661 -30.986,12.676 -21.559,1.078 -30.46,-18.505 l -11.606,-41.701 q -8.112,-66.355 -7.85,-81.946 -30.084,-405.733 -4.919,-803.103 l 12.845,-214.2751 q 13.973,-98.6134 30.123,-143.9279 60.583,-125.4225 190.2,-147.4797 64.939,-18.824 153.353,30.1641 45.822,19.9627 118.611,83.0842 133.711,100.132 263.139,271.689 180.921,220.1657 342.463,494.7084 89.803,149.06 152.114,286.141 207.701,456.939 305.692,850.376 48.865,204.515 60.545,424.24 7.324,113.126 -19.306,232.4 -29.86,128.338 -117.147,195.011 -43.644,33.336 -74.63,46.012 -61.972,25.352 -151.175,23.136 -92.17,-8.745 -174.65,-44.678 -9.164,-3.992 -21.296,-14.513 -12.132,-10.52 -27.493,-11.977 -30.723,-2.915 -57.954,-30.483 -24.263,-21.041 -36.395,-31.56 -15.098,-17.049 3.757,-40.245 9.427,-11.598 28.018,-19.203 37.185,-15.211 85.974,11.279 115.907,60.966 158.762,74.401 l 104.301,19.264 q 24.526,5.451 49.315,-4.69 24.79,-10.14 46.875,-42.399 31.511,-43.858 41.727,-102.227 11.531,-136.323 8.827,-158.44 -4.958,-253.442 -80.526,-516.706 -43.456,-160.277 -149.222,-457.636 -70.422,-203.437 -195.57,-446.419 -119.212,-229.927 -233.278,-400.0261 -159.1,-236.8338 -297.956,-396.7931 -60.394,-68.1916 -145.316,-141.8332 -27.23,-27.5681 -94.085,-77.6343 l -61.184,-21.4201 q -18.328,-7.9849 -30.987,12.6757 -25.314,41.3218 -35.005,68.5104 -9.69,27.1885 -27.155,150.4555 -17.728,138.8576 -22.46,419.4873 -5.785,342.9929 8.863,569.2449 l -4.545,87.015 q -12.92,36.252 -22.348,47.85 z"
           style="font-size:6926.47px;line-height:1.05;letter-spacing:0px;stroke:#411b0b;stroke-opacity:1"
           id="path1634" />
        <path
           d="m 21720.487,11869.505 q -5.456,2.495 -7.951,-2.961 -2.496,-5.457 0.465,-13.409 5.457,-2.495 13.874,-12.943 2.961,-7.951 10.913,-4.991 60.021,-27.45 89.798,-34.47 70.468,-19.033 140.937,-38.066 65.011,-16.537 135.479,-35.569 54.099,-11.547 86.838,-26.519 35.234,-9.517 57.06,-19.499 l 201.422,-78.923 8.418,-10.448 q -5.457,2.496 -10.448,-8.417 -69.071,-21.192 -135.182,-50.337 -211.274,-101.306 -303.606,-303.194 -74.864,-163.693 -41.53,-350.479 31.937,-146.561 168.348,-208.947 92.759,-42.423 190.678,-1.435 44.75,25.718 94.491,62.349 193.509,149.018 276.493,388.17 l 21.528,75.924 q 7.486,16.37 12.011,40.691 4.526,24.321 17.469,38.195 l 63.447,-48.81 q 33.204,-28.381 120.507,-68.309 65.477,-29.945 100.711,-39.461 l 16.37,-7.487 -4.991,-10.913 -39.294,-28.213 q -135.816,-109.426 -213.175,-278.576 -57.396,-125.498 -60.692,-262.542 -1.099,-45.681 8.715,-96.354 19.162,-87.936 122.835,-135.35 130.954,-59.891 265.205,17.262 81.549,48.475 168.722,166.952 58.792,85.273 98.72,172.576 97.322,212.801 132.595,434.187 31.212,183.657 -6.647,346.122 -21.193,69.071 -50.337,135.182 -43.018,79.053 -130.321,118.98 -54.565,24.955 -83.877,18.568 -13.408,-0.466 -12.942,-13.874 -4.991,-10.913 -2.03,-18.865 l 35.699,-22.925 q 38.195,-17.468 55.961,-65.179 20.261,-42.255 32.571,-87.471 35.997,-108.831 21.322,-227.476 -4.525,-24.321 -15.438,-19.33 -40.691,12.011 -77.489,-10.745 l -52.703,-28.679 q -189.914,-97.88 -355.004,17.208 -60.486,40.859 -115.981,92.63 -13.874,12.943 -12.31,45.216 21.696,148.423 -5.716,319.304 l -18.697,74.528 q -29.609,79.519 -100.078,98.552 -10.912,4.991 -48.642,9.051 -26.817,-0.931 -36.798,-22.757 -17.469,-38.195 -19.499,-57.06 -11.546,-54.099 4.656,-134.083 5.922,-15.904 3.426,-21.36 -2.03,-18.865 -12.943,-13.874 l -70.933,32.441 -49.108,22.459 q -98.216,44.918 -293.717,107.938 -92.294,29.014 -238.221,56.167 l -124.567,30.579 z m 1205.797,-1013.302 q 73.764,118.012 202.094,211.069 84.044,53.931 113.356,60.318 74.528,18.697 111.327,41.454 26.351,14.339 22.291,-23.39 -37.768,-226.843 -125.109,-417.818 -57.395,-125.498 -118.683,-216.228 -46.315,-57.99 -108.999,-108.495 -57.693,-39.591 -94.957,-48.94 -34.768,-3.892 -45.681,1.099 -27.282,12.477 -39.126,44.285 l -15.271,53.168 -2.793,80.45 q 8.753,134.548 56.167,238.221 z m -284.422,690.884 q -28.511,125.2 -22.421,181.795 l 2.495,5.456 q 2.496,5.456 7.952,2.961 0,0 -2.495,-5.456 l 8.417,-10.448 -2.03,-18.865 6.685,-115.218 z m -463.873,-249.691 q 87.173,118.477 280.048,208.405 l 82.48,21.658 q 15.904,5.922 26.817,0.931 5.456,-2.495 11.378,-18.399 l 37.562,-76.558 q 19.796,-28.847 12.775,-58.624 -7.021,-29.778 -30.579,-124.567 -23.558,-94.79 -58.494,-171.18 -89.837,-196.432 -262.916,-315.206 l -68.606,-34.601 q -55.664,-20.727 -92.294,29.014 -39.126,44.285 -52.367,116.318 -24.451,162.93 47.917,321.166 24.955,54.565 66.279,101.643 z"
           style="line-height:1.05;text-align:center;text-anchor:middle;stroke:#411b0b;paint-order:stroke fill markers;stroke-opacity:1"
           id="path1636" />
        <path
           d="m 20658.72,12657.818 q -9.572,-65.578 15.63,-114.821 26.602,-43.409 67.441,-53.213 40.84,-9.804 53.445,42.704 18.208,75.845 34.087,244.807 l 29.412,122.519 q 5.603,23.337 18.904,1.632 l 59.038,-88.218 q 86.336,-205.84 120.163,-399.075 55.059,-284.719 45.005,-609.34 -19.385,-260.676 -33.864,-423.803 l -42.027,-329.287 q -3.969,-42.24 -10.972,-71.411 -12.838,-27.771 -18.44,-51.108 4.434,-7.235 1.633,-18.903 -7.235,-4.434 -8.636,-10.268 -8.403,-35.005 20.768,-42.008 16.102,-10.036 45.273,-17.039 70.011,-16.807 88.451,34.3 11.436,21.937 22.873,43.873 12.837,27.771 22.641,68.61 88.228,213.298 140.049,429.165 l 71.894,248.071 70.966,347.022 q 61.866,386.228 29.217,764.294 l -21.464,116.221 q -12.132,52.276 -44.336,72.348 l -45.274,17.039 q -17.502,4.202 -55.309,0.937 -45.042,-7.698 -35.942,-46.906 33.132,-119.022 32.659,-223.806 14.924,-194.868 -4.693,-430.806 -16.816,-224.271 -96.65,-556.823 l -67.46,-255.306 -8.635,-10.268 -3.033,13.07 2.569,36.406 q 7.94,84.48 8.877,139.789 22.659,377.13 -32.632,686.586 -41.758,263.013 -139.994,496.392 l -51.804,92.652 q -39.903,65.114 -119.949,65.819 -56.71,-4.898 -85.418,-47.37 -20.072,-32.204 -27.075,-61.376 -35.014,-145.856 -47.388,-223.101 z"
           style="line-height:1.05;text-align:center;text-anchor:middle;stroke:#411b0b;paint-order:stroke fill markers;stroke-opacity:1"
           id="path1638" />
        <path
           d="m 18748.659,12342.314 q -5.562,6.408 -11.97,0.846 -12.393,-5.139 -13.24,-17.109 l 14.571,-49.15 q 64.688,-191.037 165.771,-462.843 95.098,-271.382 165.772,-462.843 l 74.543,-221.809 46.249,-111.539 q 11.124,-12.817 21.825,-31.618 4.715,-18.379 21.401,-37.603 38.934,-44.858 104.769,-49.512 59.851,-4.231 111.116,40.264 39.296,45.342 53.382,74.421 34.156,57.735 79.376,186.867 55.436,188.56 80.523,373.251 l 25.934,196.66 q 4.109,228.279 0.178,342.841 l 2.539,35.911 6.408,5.562 q 0,0 5.562,-6.408 0,0 0,0 11.124,-12.817 10.278,-24.787 l 153.317,-383.768 40.264,-111.116 59.489,-94.43 q 60.758,-76.476 169.758,-66.137 67.105,13.301 107.247,70.613 27.748,52.173 44.373,117.162 18.74,94.915 21.702,136.81 16.503,233.417 -87.542,463.327 -57.797,118.371 -155.311,185.415 -79.983,59.789 -169.759,66.137 -119.701,8.462 -189.768,-46.734 l -24.787,-10.277 q -5.985,0.423 -5.985,0.423 -5.985,0.423 -5.562,6.408 l -10.761,103.015 q -37.425,321.44 -90.627,589.86 -57.496,292.784 -149.571,521.848 l -41.11,99.146 q -14.57,49.15 -74.421,53.381 l -11.97,0.846 q -35.91,2.539 -60.697,-7.738 -12.816,-11.124 -13.662,-23.094 -0.847,-11.971 9.431,-36.757 4.292,-24.363 9.431,-36.757 119.1,-357.289 183.487,-722.739 33.917,-200.892 80.834,-643.303 25.454,-320.593 5.99,-595.906 l -22.064,-227.009 q -35.727,-250.103 -110.387,-455.349 l -35.85,-81.675 q -6.408,-5.562 -12.393,-5.139 -5.985,0.423 -11.547,6.832 -32.525,50.419 -42.38,81.19 -52.234,111.963 -71.943,173.506 -81.797,204.277 -177.318,469.675 -95.522,265.397 -156.341,426.086 -29.986,86.33 -50.965,129.918 -4.292,24.363 -38.51,50.842 -5.139,12.393 -29.079,14.086 z m 987.112,-75.803 q -5.562,6.408 -11.124,12.817 -5.139,12.393 -4.292,24.363 0.846,11.97 26.479,34.218 l 26.056,28.233 q 44.857,38.933 94.43,59.488 18.802,10.701 35.487,-8.524 63.72,-34.579 90.684,-78.591 55.196,-70.067 85.182,-156.396 70.674,-191.461 54.595,-418.893 -1.27,-17.956 -2.962,-41.896 4.292,-24.363 -4.232,-59.85 -4.231,-59.851 -31.556,-106.039 -7.678,-23.517 -24.364,-4.293 -33.794,32.465 -71.459,95.277 l -83.066,186.322 z"
           style="line-height:1.05;text-align:center;text-anchor:middle;stroke:#411b0b;paint-order:stroke fill markers;stroke-opacity:1"
           id="path1640" />
        <path
           d="m 18279.925,11236.018 q -29.16,-13.917 20.682,-40.746 19.127,-16.797 55.052,-14.466 77.836,5.05 139.424,75.184 l 48.837,81.333 q 31.651,68.192 58.253,214.221 17.506,193.539 7.405,349.212 -16.704,257.459 -109.918,582.105 l -42.14,93.467 q -21.459,52.722 -81.333,48.837 l -53.498,-9.484 q -29.549,-7.929 -27.218,-43.854 l 7.541,-23.561 q 37.707,-117.806 88.393,-342.997 47.03,-261.503 46.709,-441.903 -1.098,-168.424 -7.634,-253.025 -16.957,-109.327 -37.411,-164.768 0.777,-11.974 -30.874,-80.167 -5.599,-6.376 -35.148,-14.305 -29.548,-7.93 -47.122,-15.083 z m -0.77,1587.28 q 47.9,3.108 75.506,40.975 l 5.21,12.363 q -1.165,17.963 -31.879,27.995 -30.714,10.033 -66.639,7.702 -59.874,-3.885 -57.543,-39.809 3.108,-47.9 45.408,-51.168 z"
           style="line-height:1.05;text-align:center;text-anchor:middle;stroke:#411b0b;paint-order:stroke fill markers;stroke-opacity:1"
           id="path1642" />
        <path
           d="m 16166.011,12850.799 q -5.918,-0.987 -3.944,-12.824 0.987,-5.918 14.797,-15.781 36.497,0 71.02,11.843 224.888,110.496 336.345,171.663 180.503,84.845 366.927,134.181 l 135.133,28.618 q 88.774,14.803 244.623,28.627 23.673,3.947 37.484,-5.915 6.905,-4.932 9.866,-22.687 55.248,-112.444 95.701,-245.603 54.265,-143.023 150.957,-431.041 110.508,-370.875 141.103,-554.341 l 29.604,-141.052 37.512,-334.384 q 17.771,-179.522 22.712,-282.107 14.817,-234.76 -2.925,-383.707 2.961,-17.755 -2.955,-55.239 -10.849,-7.892 -17.754,-2.96 0,0 -34.526,24.656 -51.297,52.275 -84.84,107.51 l -236.769,398.482 q -57.219,87.784 -228.878,387.633 l -231.838,405.387 -47.353,65.098 q -29.594,31.562 -48.336,34.52 -19.729,8.876 -30.578,0.984 -10.85,-7.893 -6.902,-31.566 l 0.987,-5.918 q 2.96,-17.755 22.692,-63.127 51.301,-88.771 136.143,-232.777 78.924,-144.993 130.225,-233.764 l 434.078,-742.716 q 8.879,-16.768 25.651,-44.386 15.784,-21.699 45.378,-53.261 45.379,-53.262 73,-72.987 64.12,-56.219 166.702,-14.781 41.428,6.908 64.111,53.271 13.807,26.634 27.611,89.764 9.859,50.307 11.827,111.464 6.899,68.061 6.895,104.558 -0.02,218.979 -13.845,411.325 -16.788,210.1 -51.33,417.24 -46.385,278.159 -109.531,474.446 -61.176,220.947 -97.682,330.433 -50.32,155.846 -93.731,270.264 -43.412,114.418 -74.983,194.313 -1.974,11.837 -17.758,33.536 -15.785,21.699 -7.896,47.346 59.183,9.869 89.761,8.885 301.836,13.837 460.642,46.401 l 92.719,27.628 q 22.686,9.866 54.248,39.46 24.657,34.526 20.709,58.199 -3.947,23.673 -35.513,30.575 -35.509,-5.921 -32.549,-23.676 -6.898,-68.062 -83.836,-80.892 -22.686,-9.866 -75.951,-18.748 -165.711,-27.633 -365.949,-30.61 l -139.081,-4.944 q -17.755,-2.961 -27.621,19.725 l -116.417,260.398 -97.67,184.447 q -19.731,45.372 -56.228,45.369 -12.823,3.945 -42.415,-0.99 -35.509,-5.922 -51.29,-20.719 -16.768,-8.879 -12.821,-32.552 3.948,-23.673 12.827,-40.441 8.879,-16.768 16.771,-27.618 l 147.002,-334.374 19.732,-45.373 q 8.879,-16.767 -8.876,-19.728 l -76.937,-12.83 q -132.176,-9.876 -191.359,-19.745 -130.202,-21.712 -251.525,-60.192 -99.624,-22.696 -189.382,-68.078 -165.708,-64.13 -388.623,-186.462 z"
           style="line-height:1.05;text-align:center;text-anchor:middle;stroke:#411b0b;paint-order:stroke fill markers;stroke-opacity:1"
           id="path1644" />
        <path
           d="m 15684.655,11845.516 q -34.388,-10.653 -25.511,-39.309 l 25.666,-42.3 188.788,-224.176 q 20.34,-25.106 48.186,-54.168 27.846,-29.061 55.693,-58.123 20.339,-25.106 68.931,-60.304 80.393,-56.753 172.094,-28.346 45.85,14.203 78.868,49.556 44.48,38.904 55.383,105.094 18.814,81.204 5.421,164.993 -3.706,93.072 -37.439,201.966 -15.979,51.582 -41.239,112.851 -25.261,61.269 -41.645,93.882 l -3.551,11.462 13.238,-2.18 q 7.507,-3.956 35.353,-33.018 l 103.879,-112.29 q 70.706,-66.035 85.72,-73.947 35.353,-33.018 80.393,-56.753 67.561,-35.603 130.605,-16.074 85.97,26.631 87.59,102.509 -9.842,72.326 -20.495,106.714 -63.914,206.327 -234.949,373.19 -76.437,64.26 -134.715,90.176 -45.041,23.735 -90.486,28.501 -88.71,22.771 -157.486,1.466 -45.851,-14.204 -92.106,-47.376 -9.687,-9.282 -15.419,-11.058 -13.238,2.181 -28.251,10.093 -22.52,11.867 -66.19,10.902 -45.851,-14.203 -59.494,-30.992 -15.419,-11.058 -10.092,-28.252 5.326,-17.194 23.89,-36.568 182.247,-263.89 267.467,-538.993 39.059,-126.089 46.315,-230.623 13.394,-83.789 -8.972,-153.53 -3.955,-7.507 -7.911,-15.013 -5.732,-1.776 -13.238,2.18 -45.041,23.735 -72.887,52.797 -67.155,54.573 -96.777,89.365 l -218.815,240 q -15.014,7.912 -24.296,17.599 -9.282,9.687 -18.564,19.375 -30.027,15.823 -52.952,8.722 z m 414.214,467.502 q -26.071,23.33 1.215,56.908 19.78,37.534 42.705,44.635 22.925,7.102 58.684,-6.946 77.247,-26.321 159.416,-88.806 115.342,-108.739 199.441,-258.564 39.869,-88.15 52.297,-128.269 23.08,-74.507 2.335,-68.371 l -22.52,11.868 q -78.618,51.022 -106.464,80.083 -119.297,101.233 -346.43,307.25 -31.397,40.525 -40.679,50.212 z"
           style="line-height:1.05;text-align:center;text-anchor:middle;stroke:#411b0b;paint-order:stroke fill markers;stroke-opacity:1"
           id="path1646" />
        <path
           d="m 14079.894,11019.902 q -16.062,-8.125 -7.937,-24.187 l 13.479,-13.354 34.958,-15.936 q 527.261,-284.646 589.114,-313.873 64.561,-34.581 145.184,-61.037 24.187,-7.936 45.666,-10.519 16.125,-5.291 32.249,-10.582 64.436,-7.749 123.329,22.043 80.309,40.626 87.995,118.478 l -11.085,75.081 q -11.147,88.497 -60.275,265.365 -24.563,88.435 -65.315,195.576 -46.105,104.434 -62.418,149.974 l -35.397,109.85 q -2.708,5.354 2.583,21.478 5.354,2.709 21.478,-2.583 l 86.04,-37.163 q 220.517,-103.617 425.411,-309.273 115.895,-109.473 223.853,-243.133 l 16.187,-18.708 q 24.25,-21.353 40.312,-13.228 45.603,2.897 74.955,37.917 24.061,18.896 15.811,61.791 -16.376,58.956 -29.918,85.726 l -24.375,48.185 q -111.043,219.512 -278.649,484.375 -81.125,133.786 -132.459,208.678 -102.729,163.201 -234.874,304.798 l -2.709,5.354 q -29.666,32.061 -51.145,34.644 -24.187,7.937 -67.018,-13.73 l -21.416,-10.834 q -32.061,-29.666 -31.998,-43.083 -5.291,-16.124 19.021,-50.893 l 178.188,-232.614 q 83.708,-112.308 126.979,-184.555 l 175.73,-280.925 10.834,-21.415 q 2.708,-5.354 10.833,-21.416 8.125,-16.062 8.188,-29.478 l -43.083,31.998 q -188.581,160.116 -390.264,253.088 l -91.394,34.455 q -64.499,21.164 -131.329,-32.815 -37.415,-32.375 -31.872,-69.915 0.06,-13.416 5.668,-64.373 5.479,-24.124 13.667,-53.602 8.188,-29.478 27.147,-66.956 l 119.545,-316.071 81.691,-254.532 q 10.959,-48.248 5.793,-91.206 -2.583,-21.478 -26.707,-26.958 -61.727,2.395 -128.934,28.913 -56.436,18.519 -164.018,71.682 0,0 -516.427,263.23 l -67.207,26.519 q -26.896,13.291 -53.665,-0.251 z"
           style="line-height:1.05;text-align:center;text-anchor:middle;stroke:#411b0b;paint-order:stroke fill markers;stroke-opacity:1"
           id="path1648" />
        <path
           d="m 12889.012,10328.262 q -103.155,-3.861 -151.065,-10.541 l -103.156,-3.861 -51.578,-1.931 q 0,0 -13.165,-2.586 -13.164,-2.587 -6.91,-20.501 l 6.254,-17.913 q 18.338,-23.743 48.335,-23.318 29.997,0.425 38.414,-0.656 l 116.32,6.448 193.147,5.136 24.167,-11.658 q 25.673,-33.24 42.931,-65.399 17.257,-32.159 42.93,-65.399 31.928,-51.153 112.616,-155.6207 61.268,-89.1412 202.8,-252.7531 264.299,-273.4842 530.142,-401.7319 128.173,-67.7915 273.835,-99.3317 162.493,-33.702 271.478,-17.7569 118.483,23.2804 184.962,74.6271 113.965,88.0229 93.927,231.7535 -20.693,105.3175 -75.708,176.5455 -61.268,89.1412 -167.205,196.8516 l -131.184,110.9532 q -279.202,224.0684 -671.518,300.1204 -263.487,46.673 -553.96,49.759 -4.749,-3.667 -21.581,-1.506 -21.581,-1.505 -36.251,17.489 -33.009,42.737 -50.266,74.895 -20.925,36.908 -34.515,64.318 -120.8,225.112 -199.095,414.822 l -37.526,107.479 -14.014,57.407 q -1.506,21.581 15.326,19.419 l 41,-13.82 q 58.913,-7.567 74.009,-56.558 l 2.586,-13.164 11.003,-14.246 q 18.338,-23.743 35.171,-25.905 13.164,2.587 36.907,20.925 23.743,18.338 59.994,0.85 l 358.19,-208.548 170.678,-103.193 q 63.006,-42.312 134.003,-55.708 80.918,-36.057 161.643,26.292 94.971,73.353 69.529,175.003 l -26.523,93.233 q -36.02,85.899 -109.373,180.869 -17.257,32.159 -57.601,84.393 -58.682,75.977 -92.771,110.297 -67.098,77.058 -149.523,134.696 -105.511,77.714 -225.924,106.011 -128.829,29.378 -233.722,-21.312 -22.661,-9.922 -65.398,-42.931 -113.965,-88.023 -120.257,-236.927 l -0.656,-38.413 q 0.425,-29.997 -4.323,-33.665 -4.749,-3.667 -33.665,4.324 -54.164,11.234 -101.65,-25.442 -52.234,-40.344 -47.716,-105.086 -3.243,-25.249 18.532,-122.15 l 73.546,-193.378 q 61.037,-157.551 172.997,-351.585 l 11.002,-14.246 q 3.668,-4.748 2.587,-13.164 -4.748,-3.668 -13.165,-2.587 z m 102.031,761.121 q -20.5,6.911 -18.338,23.743 -1.506,21.581 -1.931,51.578 -8.841,31.078 -8.185,69.491 -5.598,56.326 20.962,129.91 18.57,44.667 61.731,47.679 l 105.743,-9.303 q 95.164,-25.055 181.256,-87.442 126.011,-84.624 232.372,-222.331 121.032,-156.702 186.393,-280.589 9.922,-22.661 23.512,-50.072 9.922,-22.661 15.095,-48.991 2.587,-13.164 -2.162,-16.832 -4.748,-3.668 -13.165,-2.587 -67.329,8.647 -119.331,36.714 l -176.509,91.109 -187.51,105.355 q -219.014,126.511 -299.933,162.568 z m 543.314,-1331.6391 q -34.089,34.3206 -75.514,78.1383 -45.092,48.5662 -100.107,119.7942 -58.681,75.9766 -166.548,235.2656 -25.674,33.239 -31.928,51.153 -3.668,4.748 5.829,12.083 0,0 16.833,-2.161 290.473,-3.087 543.382,-65.511 378.071,-87.055 638.278,-325.7934 115.433,-100.3753 188.786,-195.3459 77.02,-99.7192 106.13,-206.1176 2.586,-13.1647 7.76,-39.494 0.425,-29.997 -6.486,-50.4969 -12.315,-62.5807 -70.803,-85.0113 -32.159,-17.2572 -88.485,-22.8555 -82.656,-10.7718 -216.233,14.939 -231.329,63.9301 -447.1,215.6894 -192.684,131.6842 -303.794,265.7241 z"
           style="line-height:1.05;text-align:center;text-anchor:middle;stroke:#411b0b;stroke-opacity:1;paint-order:stroke fill markers"
           id="path1650" />
      </g>
      <ellipse
         style="fill:none;fill-opacity:1;stroke:#4e3021;stroke-width:357.616;stroke-linecap:round;stroke-linejoin:round;stroke-dasharray:none;stroke-opacity:0.03613515;paint-order:stroke fill markers"
         id="path2093"
         transform="rotate(-90)"
         ry="7473.6299"
         rx="7908.9473"
         cy="18808.494"
         cx="-2480.6843" />
      <g
         id="g1590"
         transform="translate(178.40593,48.656163)">
        <g
           aria-label="Est. 2023"
           transform="scale(1,-1)"
           id="text2124-3"
           style="font-size:2000px;line-height:1.25;font-family:'California Sunset - Regular';-inkscape-font-specification:'California Sunset - Regular, Normal';fill:#1f4d26;stroke:#171210;stroke-width:251.291;paint-order:stroke fill markers">
          <path
             d="m 14284.821,-7734.6929 q -8,-8 -22,-8 h -446 v -284 h 404 q 14,0 20,-8 10,-10 10,-22 v -186 q 0,-12 -10,-22 -6,-8 -20,-8 h -404 v -282 h 446 q 12,0 22,-10 10,-10 10,-22 v -188 q 0,-12 -10,-22 -12,-8 -22,-8 h -664 q -10,0 -22,8 -10,10 -10,22 v 1248 q 0,12 10,22 10,10 22,10 h 664 q 14,0 24,-10 8,-8 8,-22 v -186 q 0,-12 -10,-22 z"
             id="path1653" />
          <path
             d="m 15078.819,-8504.6929 q 6,0 18,-4 l 164,-110 q 14,-10 14,-22 0,-16 -8,-26 -58,-64 -146,-106 -86,-40 -178,-52 -28,-2 -62,-2 -50,0 -104,8 -90,18 -160,62 -138,94 -160,266 -4,14 -4,62 0,102 44,170 44,68 116,116 52,36 188,106 l 110,60 q 36,24 64,52 36,36 36,74 0,42 -24,70 -28,32 -96,44 -24,4 -54,4 -62,0 -106,-14 -94,-26 -156,-84 -12,-8 -24,-8 -8,0 -16,4 l -164,106 q -16,6 -16,28 0,10 8,20 56,66 138,114 72,44 166,70 84,22 170,22 34,0 98,-10 154,-24 240,-120 92,-102 92,-248 0,-108 -46,-182 -44,-74 -114,-122 -80,-52 -190,-110 -92,-44 -148,-84 -58,-42 -58,-98 0,-62 46,-92 34,-22 68,-24 10,-4 48,-4 32,0 40,2 84,10 146,56 6,6 20,6 z"
             id="path1655" />
          <path
             d="m 15928.815,-7504.6929 q 10,-10 10,-22 v -1028 h 322 q 10,0 24,-10 8,-8 8,-22 v -186 q 0,-16 -8,-24 -12,-8 -24,-8 h -896 q -14,0 -20,10 -10,10 -10,22 v 186 q 0,12 10,22 6,10 20,10 h 326 v 1028 q 0,14 8,22 10,10 22,10 h 188 q 14,0 20,-10 z"
             id="path1657" />
          <path
             d="m 16584.813,-7722.6929 q -44,-40 -100,-40 -54,0 -94,40 -38,36 -38,94 0,56 38,94 40,40 94,40 58,0 98,-40 42,-40 42,-94 0,-58 -40,-94 z"
             id="path1659" />
          <path
             d="m 18248.809,-7698.6929 q -18,-18 -44,-18 h -468 l 368,-392 q 64,-70 92,-144 32,-76 32,-160 0,-140 -84,-248 -80,-108 -230,-144 -50,-12 -98,-12 -118,0 -214,66 -98,68 -192,182 -16,16 -16,34 l 2,12 q 0,26 22,44 l 74,58 q 18,14 40,14 32,0 50,-24 56,-70 116,-120 54,-42 122,-42 12,0 44,4 68,18 106,64 36,48 36,112 0,84 -64,152 l -620,658 q -18,18 -18,44 0,14 6,26 4,14 22,28 16,10 36,10 h 836 q 26,0 44,-20 18,-18 18,-44 v -96 q 0,-26 -18,-44 z"
             id="path1661" />
          <path
             d="m 19024.808,-7530.6929 q 94,-54 166,-154 68,-94 104,-216 36,-118 36,-242 0,-128 -36,-244 -36,-122 -104,-216 -72,-100 -166,-154 -100,-56 -208,-56 -106,0 -206,56 -96,58 -166,154 -68,94 -104,216 -34,120 -34,244 0,122 34,242 36,122 104,216 70,96 166,154 94,56 206,56 114,0 208,-56 z m 58,-438 q -24,88 -72,154 -32,46 -88,82 -50,34 -106,34 -52,0 -104,-32 -50,-32 -86,-84 -50,-70 -74,-154 -24,-84 -24,-174 0,-90 24,-176 24,-84 74,-154 36,-52 86,-84 46,-32 104,-32 60,0 106,32 52,34 88,84 48,66 72,154 22,92 22,176 0,86 -22,174 z"
             id="path1663" />
          <path
             d="m 20254.806,-7698.6929 q -18,-18 -44,-18 h -468 l 368,-392 q 64,-70 92,-144 32,-76 32,-160 0,-140 -84,-248 -80,-108 -230,-144 -50,-12 -98,-12 -118,0 -214,66 -98,68 -192,182 -16,16 -16,34 l 2,12 q 0,26 22,44 l 74,58 q 18,14 40,14 32,0 50,-24 56,-70 116,-120 54,-42 122,-42 12,0 44,4 68,18 106,64 36,48 36,112 0,84 -64,152 l -620,658 q -18,18 -18,44 0,14 6,26 4,14 22,28 16,10 36,10 h 836 q 26,0 44,-20 18,-18 18,-44 v -96 q 0,-26 -18,-44 z"
             id="path1665" />
          <path
             d="m 21176.805,-8024.6929 q -46,-88 -130,-144 62,-56 94,-126 32,-66 32,-150 0,-110 -54,-194 -58,-84 -150,-126 -94,-44 -202,-44 -138,0 -222,54 -86,60 -158,178 -8,14 -8,32 0,12 2,16 6,28 30,40 l 80,48 q 16,10 32,10 34,0 56,-32 38,-68 76,-96 38,-26 110,-28 74,0 132,36 56,34 56,106 0,92 -78,128 -72,38 -192,50 -26,2 -42,24 -14,20 -14,48 l 10,96 q 4,26 22,40 16,16 42,16 60,-2 132,16 68,14 114,58 46,40 46,106 0,80 -62,122 -66,44 -146,44 -92,0 -146,-38 -48,-32 -108,-120 -20,-28 -56,-28 -20,0 -34,8 l -80,54 q -22,16 -28,42 v 10 q 0,22 12,38 90,134 188,194 98,62 248,62 112,0 208,-44 96,-44 158,-128 70,-92 70,-214 0,-84 -40,-164 z"
             id="path1667" />
        </g>
        <g
           aria-label="Est. 2023"
           transform="scale(1,-1)"
           id="text2124"
           style="font-size:2000px;line-height:1.25;fill:#9e3e06;stroke-width:7.5">
          <path
             d="m 13569.187,-8209.9624 v -558 q 0,-12 10,-22 12,-8 22,-8 h 664 q 10,0 22,8 10,10 10,22 v 188 q 0,12 -10,22 -10,10 -22,10 h -446 v 282 h 404 q 14,0 20,8 10,10 10,22 v 26 z m 0,22 h 684 v 40 h -684 z m 684,92 v 38 h -684 v -38 z m -434,108 v 44 h -250 v -44 z m 0,180 v 44 h -250 v -44 z"
             style="font-family:'California Sunset - Lined';-inkscape-font-specification:'California Sunset - Lined, Normal'"
             id="path1670" />
          <path
             d="m 14529.185,-8209.9624 q -18,-22 -30,-42 -44,-68 -44,-170 0,-48 4,-62 22,-172 160,-266 70,-44 160,-62 54,-8 104,-8 34,0 62,2 92,12 178,52 88,42 146,106 8,10 8,26 0,12 -14,22 l -164,110 q -12,4 -18,4 -14,0 -20,-6 -62,-46 -146,-56 -8,-2 -40,-2 -38,0 -48,4 -34,2 -68,24 -46,30 -46,92 0,56 58,98 56,40 148,84 l 90,50 z m 68,62 q -24,-18 -46,-40 h 498 l 60,38 2,2 z m 574,52 q 34,40 32,38 h -454 q -16,-6 -72,-38 z m 72,108 q 8,16 14,44 h -310 l -34,-26 -36,-18 z m -648,180 q 32,26 70,44 h -228 l 68,-44 z m 672,0 -6,44 h -284 l 12,-10 q 12,-16 18,-34 z"
             style="font-family:'California Sunset - Lined';-inkscape-font-specification:'California Sunset - Lined, Normal'"
             id="path1672" />
          <path
             d="m 15367.18,-8547.9624 q -14,0 -20,-10 -10,-10 -10,-22 v -186 q 0,-12 10,-22 6,-10 20,-10 h 896 q 12,0 24,8 8,8 8,24 v 186 q 0,14 -8,22 -14,10 -24,10 h -322 v 338 h -248 v -338 z m 326,360 h 248 v 40 h -248 z m 248,92 v 38 h -248 v -38 z m 0,108 v 44 h -248 v -44 z m 0,180 v 44 h -248 v -44 z"
             style="font-family:'California Sunset - Lined';-inkscape-font-specification:'California Sunset - Lined, Normal'"
             id="path1674" />
          <path
             d="m 16587.179,-7715.9624 q -44,-40 -100,-40 -54,0 -94,40 -38,36 -38,94 0,56 38,94 40,40 94,40 58,0 98,-40 42,-40 42,-94 0,-58 -40,-94 z"
             style="font-family:'California Sunset - Lined';-inkscape-font-specification:'California Sunset - Lined, Normal'"
             id="path1676" />
          <path
             d="m 17421.174,-8471.9624 q -22,-18 -22,-44 l -2,-12 q 0,-18 14,-34 92,-112 194,-182 96,-66 214,-66 44,0 98,12 146,36 230,144 84,108 84,248 0,84 -32,160 -4,12 -16,36 h -278 l 40,-44 q 64,-68 64,-152 0,-66 -38,-112 -34,-46 -104,-64 -32,-4 -44,-4 -68,0 -122,42 -60,50 -116,120 -22,24 -50,24 -22,0 -40,-14 z m 750,284 -26,40 h -300 l 38,-40 z m -70,92 -36,38 h -306 l 38,-38 z m -102,108 -42,44 h -304 l 42,-44 z m -170,180 -40,44 h -306 l 42,-44 z"
             style="font-family:'California Sunset - Lined';-inkscape-font-specification:'California Sunset - Lined, Normal'"
             id="path1678" />
          <path
             d="m 18311.173,-8193.9624 q 6,-102 32,-186 32,-112 102,-216 74,-98 168,-154 96,-56 206,-56 108,0 208,56 96,58 166,154 68,94 104,216 28,94 34,186 h -226 q -6,-68 -20,-118 -24,-88 -72,-154 -40,-54 -88,-84 -50,-32 -106,-32 -58,0 -104,32 -48,30 -88,84 -48,66 -72,154 -16,62 -22,118 z m 222,24 q -2,12 -2,34 v 6 h -222 v -6 -34 z m 800,34 v 6 h -226 v -6 -34 h 224 z m -800,56 6,40 h -226 l -2,-40 z m 798,0 -4,40 h -226 l 4,-40 z m -1006,108 h 228 l 2,10 12,36 h -234 z m 992,0 q -8,34 -10,46 h -234 l 12,-36 q 0,-6 2,-10 z m -676,182 q 20,24 44,44 h -282 l -22,-44 z m 618,0 -24,44 h -280 q 24,-20 44,-44 z m -388,318 q -32,4 -52,4 -16,0 -52,-4 z"
             style="font-family:'California Sunset - Lined';-inkscape-font-specification:'California Sunset - Lined, Normal'"
             id="path1680" />
          <path
             d="m 19427.171,-8471.9624 q -22,-18 -22,-44 l -2,-12 q 0,-18 14,-34 92,-112 194,-182 96,-66 214,-66 44,0 98,12 146,36 230,144 84,108 84,248 0,84 -32,160 -4,12 -16,36 h -278 l 40,-44 q 64,-68 64,-152 0,-66 -38,-112 -34,-46 -104,-64 -32,-4 -44,-4 -68,0 -122,42 -60,50 -116,120 -22,24 -50,24 -22,0 -40,-14 z m 750,284 -26,40 h -300 l 38,-40 z m -70,92 -36,38 h -306 l 38,-38 z m -102,108 -42,44 h -304 l 42,-44 z m -170,180 -40,44 h -306 l 42,-44 z"
             style="font-family:'California Sunset - Lined';-inkscape-font-specification:'California Sunset - Lined, Normal'"
             id="path1682" />
          <path
             d="m 20413.17,-8481.9624 q -26,-12 -28,-40 -2,-4 -2,-16 0,-18 8,-32 74,-120 158,-178 84,-54 222,-54 108,0 202,44 94,42 148,126 56,82 56,194 0,84 -32,150 -28,54 -58,88 h -456 q 4,-20 14,-36 16,-22 42,-24 116,-12 192,-50 78,-36 78,-128 0,-72 -58,-106 -58,-36 -130,-36 -72,2 -110,28 -36,24 -76,96 -22,32 -56,32 -16,0 -32,-10 z m 652,306 q -14,14 -14,14 l 32,24 h -446 l -4,-38 z m 70,90 q 16,20 28,40 h -494 l -8,-6 q -18,-18 -20,-34 z m 62,108 q 12,28 14,44 h -236 q -10,-16 -24,-28 l -20,-16 z m -586,224 h -274 v -18 q 4,-16 12,-24 h 222 z m 606,-42 -10,42 h -250 q 16,-14 30,-42 z"
             style="font-family:'California Sunset - Lined';-inkscape-font-specification:'California Sunset - Lined, Normal'"
             id="path1684" />
        </g>
      </g>
    </g>
  </g>
</svg>
